<?xml version="1.0" encoding="utf-8" standalone="no"?>
<!DOCTYPE svg PUBLIC "-//W3C//DTD SVG 1.1//EN"
  "http://www.w3.org/Graphics/SVG/1.1/DTD/svg11.dtd">
<svg xmlns:xlink="http://www.w3.org/1999/xlink" width="864pt" height="216pt" viewBox="0 0 864 216" xmlns="http://www.w3.org/2000/svg" version="1.1">
 <metadata>
  <rdf:RDF xmlns:dc="http://purl.org/dc/elements/1.1/" xmlns:cc="http://creativecommons.org/ns#" xmlns:rdf="http://www.w3.org/1999/02/22-rdf-syntax-ns#">
   <cc:Work>
    <dc:type rdf:resource="http://purl.org/dc/dcmitype/StillImage"/>
    <dc:date>2024-05-05T22:13:08.502459</dc:date>
    <dc:format>image/svg+xml</dc:format>
    <dc:creator>
     <cc:Agent>
      <dc:title>Matplotlib v3.7.2, https://matplotlib.org/</dc:title>
     </cc:Agent>
    </dc:creator>
   </cc:Work>
  </rdf:RDF>
 </metadata>
 <defs>
  <style type="text/css">*{stroke-linejoin: round; stroke-linecap: butt}</style>
 </defs>
 <g id="figure_1">
  <g id="patch_1">
   <path d="M 0 216 
L 864 216 
L 864 0 
L 0 0 
z
" style="fill: #ffffff"/>
  </g>
  <g id="axes_1">
   <g id="patch_2">
    <path d="M 108 192.24 
L 777.6 192.24 
L 777.6 25.92 
L 108 25.92 
z
" style="fill: #ffffff"/>
   </g>
   <g id="matplotlib.axis_1">
    <g id="xtick_1">
     <g id="line2d_1">
      <defs>
       <path id="ma14b9c392b" d="M 0 0 
L 0 3.5 
" style="stroke: #000000; stroke-width: 0.8"/>
      </defs>
      <g>
       <use xlink:href="#ma14b9c392b" x="124.114485" y="192.24" style="stroke: #000000; stroke-width: 0.8"/>
      </g>
     </g>
     <g id="text_1">
      <!-- 0 -->
      <g transform="translate(119.024485 211.3975) scale(0.16 -0.16)">
       <defs>
        <path id="DejaVuSans-30" d="M 2034 4250 
Q 1547 4250 1301 3770 
Q 1056 3291 1056 2328 
Q 1056 1369 1301 889 
Q 1547 409 2034 409 
Q 2525 409 2770 889 
Q 3016 1369 3016 2328 
Q 3016 3291 2770 3770 
Q 2525 4250 2034 4250 
z
M 2034 4750 
Q 2819 4750 3233 4129 
Q 3647 3509 3647 2328 
Q 3647 1150 3233 529 
Q 2819 -91 2034 -91 
Q 1250 -91 836 529 
Q 422 1150 422 2328 
Q 422 3509 836 4129 
Q 1250 4750 2034 4750 
z
" transform="scale(0.015625)"/>
       </defs>
       <use xlink:href="#DejaVuSans-30"/>
      </g>
     </g>
    </g>
    <g id="xtick_2">
     <g id="line2d_2">
      <g>
       <use xlink:href="#ma14b9c392b" x="199.991988" y="192.24" style="stroke: #000000; stroke-width: 0.8"/>
      </g>
     </g>
     <g id="text_2">
      <!-- 50 -->
      <g transform="translate(189.811988 211.3975) scale(0.16 -0.16)">
       <defs>
        <path id="DejaVuSans-35" d="M 691 4666 
L 3169 4666 
L 3169 4134 
L 1269 4134 
L 1269 2991 
Q 1406 3038 1543 3061 
Q 1681 3084 1819 3084 
Q 2600 3084 3056 2656 
Q 3513 2228 3513 1497 
Q 3513 744 3044 326 
Q 2575 -91 1722 -91 
Q 1428 -91 1123 -41 
Q 819 9 494 109 
L 494 744 
Q 775 591 1075 516 
Q 1375 441 1709 441 
Q 2250 441 2565 725 
Q 2881 1009 2881 1497 
Q 2881 1984 2565 2268 
Q 2250 2553 1709 2553 
Q 1456 2553 1204 2497 
Q 953 2441 691 2322 
L 691 4666 
z
" transform="scale(0.015625)"/>
       </defs>
       <use xlink:href="#DejaVuSans-35"/>
       <use xlink:href="#DejaVuSans-30" x="63.623047"/>
      </g>
     </g>
    </g>
    <g id="xtick_3">
     <g id="line2d_3">
      <g>
       <use xlink:href="#ma14b9c392b" x="275.869492" y="192.24" style="stroke: #000000; stroke-width: 0.8"/>
      </g>
     </g>
     <g id="text_3">
      <!-- 100 -->
      <g transform="translate(260.599492 211.3975) scale(0.16 -0.16)">
       <defs>
        <path id="DejaVuSans-31" d="M 794 531 
L 1825 531 
L 1825 4091 
L 703 3866 
L 703 4441 
L 1819 4666 
L 2450 4666 
L 2450 531 
L 3481 531 
L 3481 0 
L 794 0 
L 794 531 
z
" transform="scale(0.015625)"/>
       </defs>
       <use xlink:href="#DejaVuSans-31"/>
       <use xlink:href="#DejaVuSans-30" x="63.623047"/>
       <use xlink:href="#DejaVuSans-30" x="127.246094"/>
      </g>
     </g>
    </g>
    <g id="xtick_4">
     <g id="line2d_4">
      <g>
       <use xlink:href="#ma14b9c392b" x="351.746996" y="192.24" style="stroke: #000000; stroke-width: 0.8"/>
      </g>
     </g>
     <g id="text_4">
      <!-- 150 -->
      <g transform="translate(336.476996 211.3975) scale(0.16 -0.16)">
       <use xlink:href="#DejaVuSans-31"/>
       <use xlink:href="#DejaVuSans-35" x="63.623047"/>
       <use xlink:href="#DejaVuSans-30" x="127.246094"/>
      </g>
     </g>
    </g>
    <g id="xtick_5">
     <g id="line2d_5">
      <g>
       <use xlink:href="#ma14b9c392b" x="427.624499" y="192.24" style="stroke: #000000; stroke-width: 0.8"/>
      </g>
     </g>
     <g id="text_5">
      <!-- 200 -->
      <g transform="translate(412.354499 211.3975) scale(0.16 -0.16)">
       <defs>
        <path id="DejaVuSans-32" d="M 1228 531 
L 3431 531 
L 3431 0 
L 469 0 
L 469 531 
Q 828 903 1448 1529 
Q 2069 2156 2228 2338 
Q 2531 2678 2651 2914 
Q 2772 3150 2772 3378 
Q 2772 3750 2511 3984 
Q 2250 4219 1831 4219 
Q 1534 4219 1204 4116 
Q 875 4013 500 3803 
L 500 4441 
Q 881 4594 1212 4672 
Q 1544 4750 1819 4750 
Q 2544 4750 2975 4387 
Q 3406 4025 3406 3419 
Q 3406 3131 3298 2873 
Q 3191 2616 2906 2266 
Q 2828 2175 2409 1742 
Q 1991 1309 1228 531 
z
" transform="scale(0.015625)"/>
       </defs>
       <use xlink:href="#DejaVuSans-32"/>
       <use xlink:href="#DejaVuSans-30" x="63.623047"/>
       <use xlink:href="#DejaVuSans-30" x="127.246094"/>
      </g>
     </g>
    </g>
    <g id="xtick_6">
     <g id="line2d_6">
      <g>
       <use xlink:href="#ma14b9c392b" x="503.502003" y="192.24" style="stroke: #000000; stroke-width: 0.8"/>
      </g>
     </g>
     <g id="text_6">
      <!-- 250 -->
      <g transform="translate(488.232003 211.3975) scale(0.16 -0.16)">
       <use xlink:href="#DejaVuSans-32"/>
       <use xlink:href="#DejaVuSans-35" x="63.623047"/>
       <use xlink:href="#DejaVuSans-30" x="127.246094"/>
      </g>
     </g>
    </g>
    <g id="xtick_7">
     <g id="line2d_7">
      <g>
       <use xlink:href="#ma14b9c392b" x="579.379507" y="192.24" style="stroke: #000000; stroke-width: 0.8"/>
      </g>
     </g>
     <g id="text_7">
      <!-- 300 -->
      <g transform="translate(564.109507 211.3975) scale(0.16 -0.16)">
       <defs>
        <path id="DejaVuSans-33" d="M 2597 2516 
Q 3050 2419 3304 2112 
Q 3559 1806 3559 1356 
Q 3559 666 3084 287 
Q 2609 -91 1734 -91 
Q 1441 -91 1130 -33 
Q 819 25 488 141 
L 488 750 
Q 750 597 1062 519 
Q 1375 441 1716 441 
Q 2309 441 2620 675 
Q 2931 909 2931 1356 
Q 2931 1769 2642 2001 
Q 2353 2234 1838 2234 
L 1294 2234 
L 1294 2753 
L 1863 2753 
Q 2328 2753 2575 2939 
Q 2822 3125 2822 3475 
Q 2822 3834 2567 4026 
Q 2313 4219 1838 4219 
Q 1578 4219 1281 4162 
Q 984 4106 628 3988 
L 628 4550 
Q 988 4650 1302 4700 
Q 1616 4750 1894 4750 
Q 2613 4750 3031 4423 
Q 3450 4097 3450 3541 
Q 3450 3153 3228 2886 
Q 3006 2619 2597 2516 
z
" transform="scale(0.015625)"/>
       </defs>
       <use xlink:href="#DejaVuSans-33"/>
       <use xlink:href="#DejaVuSans-30" x="63.623047"/>
       <use xlink:href="#DejaVuSans-30" x="127.246094"/>
      </g>
     </g>
    </g>
    <g id="xtick_8">
     <g id="line2d_8">
      <g>
       <use xlink:href="#ma14b9c392b" x="655.25701" y="192.24" style="stroke: #000000; stroke-width: 0.8"/>
      </g>
     </g>
     <g id="text_8">
      <!-- 350 -->
      <g transform="translate(639.98701 211.3975) scale(0.16 -0.16)">
       <use xlink:href="#DejaVuSans-33"/>
       <use xlink:href="#DejaVuSans-35" x="63.623047"/>
       <use xlink:href="#DejaVuSans-30" x="127.246094"/>
      </g>
     </g>
    </g>
    <g id="xtick_9">
     <g id="line2d_9">
      <g>
       <use xlink:href="#ma14b9c392b" x="731.134514" y="192.24" style="stroke: #000000; stroke-width: 0.8"/>
      </g>
     </g>
     <g id="text_9">
      <!-- 400 -->
      <g transform="translate(715.864514 211.3975) scale(0.16 -0.16)">
       <defs>
        <path id="DejaVuSans-34" d="M 2419 4116 
L 825 1625 
L 2419 1625 
L 2419 4116 
z
M 2253 4666 
L 3047 4666 
L 3047 1625 
L 3713 1625 
L 3713 1100 
L 3047 1100 
L 3047 0 
L 2419 0 
L 2419 1100 
L 313 1100 
L 313 1709 
L 2253 4666 
z
" transform="scale(0.015625)"/>
       </defs>
       <use xlink:href="#DejaVuSans-34"/>
       <use xlink:href="#DejaVuSans-30" x="63.623047"/>
       <use xlink:href="#DejaVuSans-30" x="127.246094"/>
      </g>
     </g>
    </g>
    <g id="text_10">
     <!-- Time (s) -->
     <g transform="translate(410.27375 230.8825) scale(0.16 -0.16)">
      <defs>
       <path id="DejaVuSans-54" d="M -19 4666 
L 3928 4666 
L 3928 4134 
L 2272 4134 
L 2272 0 
L 1638 0 
L 1638 4134 
L -19 4134 
L -19 4666 
z
" transform="scale(0.015625)"/>
       <path id="DejaVuSans-69" d="M 603 3500 
L 1178 3500 
L 1178 0 
L 603 0 
L 603 3500 
z
M 603 4863 
L 1178 4863 
L 1178 4134 
L 603 4134 
L 603 4863 
z
" transform="scale(0.015625)"/>
       <path id="DejaVuSans-6d" d="M 3328 2828 
Q 3544 3216 3844 3400 
Q 4144 3584 4550 3584 
Q 5097 3584 5394 3201 
Q 5691 2819 5691 2113 
L 5691 0 
L 5113 0 
L 5113 2094 
Q 5113 2597 4934 2840 
Q 4756 3084 4391 3084 
Q 3944 3084 3684 2787 
Q 3425 2491 3425 1978 
L 3425 0 
L 2847 0 
L 2847 2094 
Q 2847 2600 2669 2842 
Q 2491 3084 2119 3084 
Q 1678 3084 1418 2786 
Q 1159 2488 1159 1978 
L 1159 0 
L 581 0 
L 581 3500 
L 1159 3500 
L 1159 2956 
Q 1356 3278 1631 3431 
Q 1906 3584 2284 3584 
Q 2666 3584 2933 3390 
Q 3200 3197 3328 2828 
z
" transform="scale(0.015625)"/>
       <path id="DejaVuSans-65" d="M 3597 1894 
L 3597 1613 
L 953 1613 
Q 991 1019 1311 708 
Q 1631 397 2203 397 
Q 2534 397 2845 478 
Q 3156 559 3463 722 
L 3463 178 
Q 3153 47 2828 -22 
Q 2503 -91 2169 -91 
Q 1331 -91 842 396 
Q 353 884 353 1716 
Q 353 2575 817 3079 
Q 1281 3584 2069 3584 
Q 2775 3584 3186 3129 
Q 3597 2675 3597 1894 
z
M 3022 2063 
Q 3016 2534 2758 2815 
Q 2500 3097 2075 3097 
Q 1594 3097 1305 2825 
Q 1016 2553 972 2059 
L 3022 2063 
z
" transform="scale(0.015625)"/>
       <path id="DejaVuSans-20" transform="scale(0.015625)"/>
       <path id="DejaVuSans-28" d="M 1984 4856 
Q 1566 4138 1362 3434 
Q 1159 2731 1159 2009 
Q 1159 1288 1364 580 
Q 1569 -128 1984 -844 
L 1484 -844 
Q 1016 -109 783 600 
Q 550 1309 550 2009 
Q 550 2706 781 3412 
Q 1013 4119 1484 4856 
L 1984 4856 
z
" transform="scale(0.015625)"/>
       <path id="DejaVuSans-73" d="M 2834 3397 
L 2834 2853 
Q 2591 2978 2328 3040 
Q 2066 3103 1784 3103 
Q 1356 3103 1142 2972 
Q 928 2841 928 2578 
Q 928 2378 1081 2264 
Q 1234 2150 1697 2047 
L 1894 2003 
Q 2506 1872 2764 1633 
Q 3022 1394 3022 966 
Q 3022 478 2636 193 
Q 2250 -91 1575 -91 
Q 1294 -91 989 -36 
Q 684 19 347 128 
L 347 722 
Q 666 556 975 473 
Q 1284 391 1588 391 
Q 1994 391 2212 530 
Q 2431 669 2431 922 
Q 2431 1156 2273 1281 
Q 2116 1406 1581 1522 
L 1381 1569 
Q 847 1681 609 1914 
Q 372 2147 372 2553 
Q 372 3047 722 3315 
Q 1072 3584 1716 3584 
Q 2034 3584 2315 3537 
Q 2597 3491 2834 3397 
z
" transform="scale(0.015625)"/>
       <path id="DejaVuSans-29" d="M 513 4856 
L 1013 4856 
Q 1481 4119 1714 3412 
Q 1947 2706 1947 2009 
Q 1947 1309 1714 600 
Q 1481 -109 1013 -844 
L 513 -844 
Q 928 -128 1133 580 
Q 1338 1288 1338 2009 
Q 1338 2731 1133 3434 
Q 928 4138 513 4856 
z
" transform="scale(0.015625)"/>
      </defs>
      <use xlink:href="#DejaVuSans-54"/>
      <use xlink:href="#DejaVuSans-69" x="57.958984"/>
      <use xlink:href="#DejaVuSans-6d" x="85.742188"/>
      <use xlink:href="#DejaVuSans-65" x="183.154297"/>
      <use xlink:href="#DejaVuSans-20" x="244.677734"/>
      <use xlink:href="#DejaVuSans-28" x="276.464844"/>
      <use xlink:href="#DejaVuSans-73" x="315.478516"/>
      <use xlink:href="#DejaVuSans-29" x="367.578125"/>
     </g>
    </g>
   </g>
   <g id="matplotlib.axis_2">
    <g id="ytick_1">
     <g id="line2d_10">
      <defs>
       <path id="m7d3c9bb30b" d="M 0 0 
L -3.5 0 
" style="stroke: #000000; stroke-width: 0.8"/>
      </defs>
      <g>
       <use xlink:href="#m7d3c9bb30b" x="108" y="184.68" style="stroke: #000000; stroke-width: 0.8"/>
      </g>
     </g>
     <g id="text_11">
      <!-- −5.0 -->
      <g transform="translate(62.1475 190.75875) scale(0.16 -0.16)">
       <defs>
        <path id="DejaVuSans-2212" d="M 678 2272 
L 4684 2272 
L 4684 1741 
L 678 1741 
L 678 2272 
z
" transform="scale(0.015625)"/>
        <path id="DejaVuSans-2e" d="M 684 794 
L 1344 794 
L 1344 0 
L 684 0 
L 684 794 
z
" transform="scale(0.015625)"/>
       </defs>
       <use xlink:href="#DejaVuSans-2212"/>
       <use xlink:href="#DejaVuSans-35" x="83.789062"/>
       <use xlink:href="#DejaVuSans-2e" x="147.412109"/>
       <use xlink:href="#DejaVuSans-30" x="179.199219"/>
      </g>
     </g>
    </g>
    <g id="ytick_2">
     <g id="line2d_11">
      <g>
       <use xlink:href="#m7d3c9bb30b" x="108" y="146.88" style="stroke: #000000; stroke-width: 0.8"/>
      </g>
     </g>
     <g id="text_12">
      <!-- −2.5 -->
      <g transform="translate(62.1475 152.95875) scale(0.16 -0.16)">
       <use xlink:href="#DejaVuSans-2212"/>
       <use xlink:href="#DejaVuSans-32" x="83.789062"/>
       <use xlink:href="#DejaVuSans-2e" x="147.412109"/>
       <use xlink:href="#DejaVuSans-35" x="179.199219"/>
      </g>
     </g>
    </g>
    <g id="ytick_3">
     <g id="line2d_12">
      <g>
       <use xlink:href="#m7d3c9bb30b" x="108" y="109.08" style="stroke: #000000; stroke-width: 0.8"/>
      </g>
     </g>
     <g id="text_13">
      <!-- 0.0 -->
      <g transform="translate(75.555 115.15875) scale(0.16 -0.16)">
       <use xlink:href="#DejaVuSans-30"/>
       <use xlink:href="#DejaVuSans-2e" x="63.623047"/>
       <use xlink:href="#DejaVuSans-30" x="95.410156"/>
      </g>
     </g>
    </g>
    <g id="ytick_4">
     <g id="line2d_13">
      <g>
       <use xlink:href="#m7d3c9bb30b" x="108" y="71.28" style="stroke: #000000; stroke-width: 0.8"/>
      </g>
     </g>
     <g id="text_14">
      <!-- 2.5 -->
      <g transform="translate(75.555 77.35875) scale(0.16 -0.16)">
       <use xlink:href="#DejaVuSans-32"/>
       <use xlink:href="#DejaVuSans-2e" x="63.623047"/>
       <use xlink:href="#DejaVuSans-35" x="95.410156"/>
      </g>
     </g>
    </g>
    <g id="ytick_5">
     <g id="line2d_14">
      <g>
       <use xlink:href="#m7d3c9bb30b" x="108" y="33.48" style="stroke: #000000; stroke-width: 0.8"/>
      </g>
     </g>
     <g id="text_15">
      <!-- 5.0 -->
      <g transform="translate(75.555 39.55875) scale(0.16 -0.16)">
       <use xlink:href="#DejaVuSans-35"/>
       <use xlink:href="#DejaVuSans-2e" x="63.623047"/>
       <use xlink:href="#DejaVuSans-30" x="95.410156"/>
      </g>
     </g>
    </g>
    <g id="text_16">
     <!-- Electrical Activity (mV) -->
     <g transform="translate(54.82 200.36125) rotate(-90) scale(0.16 -0.16)">
      <defs>
       <path id="DejaVuSans-45" d="M 628 4666 
L 3578 4666 
L 3578 4134 
L 1259 4134 
L 1259 2753 
L 3481 2753 
L 3481 2222 
L 1259 2222 
L 1259 531 
L 3634 531 
L 3634 0 
L 628 0 
L 628 4666 
z
" transform="scale(0.015625)"/>
       <path id="DejaVuSans-6c" d="M 603 4863 
L 1178 4863 
L 1178 0 
L 603 0 
L 603 4863 
z
" transform="scale(0.015625)"/>
       <path id="DejaVuSans-63" d="M 3122 3366 
L 3122 2828 
Q 2878 2963 2633 3030 
Q 2388 3097 2138 3097 
Q 1578 3097 1268 2742 
Q 959 2388 959 1747 
Q 959 1106 1268 751 
Q 1578 397 2138 397 
Q 2388 397 2633 464 
Q 2878 531 3122 666 
L 3122 134 
Q 2881 22 2623 -34 
Q 2366 -91 2075 -91 
Q 1284 -91 818 406 
Q 353 903 353 1747 
Q 353 2603 823 3093 
Q 1294 3584 2113 3584 
Q 2378 3584 2631 3529 
Q 2884 3475 3122 3366 
z
" transform="scale(0.015625)"/>
       <path id="DejaVuSans-74" d="M 1172 4494 
L 1172 3500 
L 2356 3500 
L 2356 3053 
L 1172 3053 
L 1172 1153 
Q 1172 725 1289 603 
Q 1406 481 1766 481 
L 2356 481 
L 2356 0 
L 1766 0 
Q 1100 0 847 248 
Q 594 497 594 1153 
L 594 3053 
L 172 3053 
L 172 3500 
L 594 3500 
L 594 4494 
L 1172 4494 
z
" transform="scale(0.015625)"/>
       <path id="DejaVuSans-72" d="M 2631 2963 
Q 2534 3019 2420 3045 
Q 2306 3072 2169 3072 
Q 1681 3072 1420 2755 
Q 1159 2438 1159 1844 
L 1159 0 
L 581 0 
L 581 3500 
L 1159 3500 
L 1159 2956 
Q 1341 3275 1631 3429 
Q 1922 3584 2338 3584 
Q 2397 3584 2469 3576 
Q 2541 3569 2628 3553 
L 2631 2963 
z
" transform="scale(0.015625)"/>
       <path id="DejaVuSans-61" d="M 2194 1759 
Q 1497 1759 1228 1600 
Q 959 1441 959 1056 
Q 959 750 1161 570 
Q 1363 391 1709 391 
Q 2188 391 2477 730 
Q 2766 1069 2766 1631 
L 2766 1759 
L 2194 1759 
z
M 3341 1997 
L 3341 0 
L 2766 0 
L 2766 531 
Q 2569 213 2275 61 
Q 1981 -91 1556 -91 
Q 1019 -91 701 211 
Q 384 513 384 1019 
Q 384 1609 779 1909 
Q 1175 2209 1959 2209 
L 2766 2209 
L 2766 2266 
Q 2766 2663 2505 2880 
Q 2244 3097 1772 3097 
Q 1472 3097 1187 3025 
Q 903 2953 641 2809 
L 641 3341 
Q 956 3463 1253 3523 
Q 1550 3584 1831 3584 
Q 2591 3584 2966 3190 
Q 3341 2797 3341 1997 
z
" transform="scale(0.015625)"/>
       <path id="DejaVuSans-41" d="M 2188 4044 
L 1331 1722 
L 3047 1722 
L 2188 4044 
z
M 1831 4666 
L 2547 4666 
L 4325 0 
L 3669 0 
L 3244 1197 
L 1141 1197 
L 716 0 
L 50 0 
L 1831 4666 
z
" transform="scale(0.015625)"/>
       <path id="DejaVuSans-76" d="M 191 3500 
L 800 3500 
L 1894 563 
L 2988 3500 
L 3597 3500 
L 2284 0 
L 1503 0 
L 191 3500 
z
" transform="scale(0.015625)"/>
       <path id="DejaVuSans-79" d="M 2059 -325 
Q 1816 -950 1584 -1140 
Q 1353 -1331 966 -1331 
L 506 -1331 
L 506 -850 
L 844 -850 
Q 1081 -850 1212 -737 
Q 1344 -625 1503 -206 
L 1606 56 
L 191 3500 
L 800 3500 
L 1894 763 
L 2988 3500 
L 3597 3500 
L 2059 -325 
z
" transform="scale(0.015625)"/>
       <path id="DejaVuSans-56" d="M 1831 0 
L 50 4666 
L 709 4666 
L 2188 738 
L 3669 4666 
L 4325 4666 
L 2547 0 
L 1831 0 
z
" transform="scale(0.015625)"/>
      </defs>
      <use xlink:href="#DejaVuSans-45"/>
      <use xlink:href="#DejaVuSans-6c" x="63.183594"/>
      <use xlink:href="#DejaVuSans-65" x="90.966797"/>
      <use xlink:href="#DejaVuSans-63" x="152.490234"/>
      <use xlink:href="#DejaVuSans-74" x="207.470703"/>
      <use xlink:href="#DejaVuSans-72" x="246.679688"/>
      <use xlink:href="#DejaVuSans-69" x="287.792969"/>
      <use xlink:href="#DejaVuSans-63" x="315.576172"/>
      <use xlink:href="#DejaVuSans-61" x="370.556641"/>
      <use xlink:href="#DejaVuSans-6c" x="431.835938"/>
      <use xlink:href="#DejaVuSans-20" x="459.619141"/>
      <use xlink:href="#DejaVuSans-41" x="491.40625"/>
      <use xlink:href="#DejaVuSans-63" x="558.064453"/>
      <use xlink:href="#DejaVuSans-74" x="613.044922"/>
      <use xlink:href="#DejaVuSans-69" x="652.253906"/>
      <use xlink:href="#DejaVuSans-76" x="680.037109"/>
      <use xlink:href="#DejaVuSans-69" x="739.216797"/>
      <use xlink:href="#DejaVuSans-74" x="767"/>
      <use xlink:href="#DejaVuSans-79" x="806.208984"/>
      <use xlink:href="#DejaVuSans-20" x="865.388672"/>
      <use xlink:href="#DejaVuSans-28" x="897.175781"/>
      <use xlink:href="#DejaVuSans-6d" x="936.189453"/>
      <use xlink:href="#DejaVuSans-56" x="1033.601562"/>
      <use xlink:href="#DejaVuSans-29" x="1102.009766"/>
     </g>
    </g>
   </g>
   <g id="line2d_15">
    <path d="M 138.436364 97.548268 
L 138.578634 98.513077 
L 138.863175 94.667255 
L 139.337409 87.049625 
L 139.62195 85.84294 
L 139.716797 84.440411 
L 139.811643 84.532923 
L 139.859067 84.552986 
L 140.333301 87.253651 
L 140.712689 92.042793 
L 142.040545 113.25353 
L 142.135392 113.350378 
L 142.419933 109.861089 
L 142.751897 104.589445 
L 142.94159 102.976698 
L 143.131284 101.286602 
L 143.178708 101.470941 
L 143.510672 103.41368 
L 144.127176 111.65433 
L 145.407609 134.743945 
L 145.502456 134.291788 
L 145.644726 133.143761 
L 145.83442 130.355314 
L 146.118961 126.884315 
L 146.308655 125.634959 
L 146.403502 124.478297 
L 146.450925 124.583035 
L 146.593195 125.352901 
L 147.06743 130.899549 
L 147.968475 148.355043 
L 148.58498 159.127616 
L 148.679827 160.252017 
L 148.72725 159.865183 
L 148.86952 158.211162 
L 149.201484 149.955838 
L 149.486025 144.673353 
L 149.723142 140.223688 
L 149.912836 138.15178 
L 150.149953 137.609194 
L 150.197377 137.635628 
L 150.2448 137.638594 
L 150.576764 138.914797 
L 151.003575 143.137737 
L 151.382963 145.759044 
L 151.857197 148.53211 
L 152.046891 149.77132 
L 152.094314 149.886411 
L 152.378855 145.597983 
L 152.853089 135.885316 
L 152.99536 133.975374 
L 153.232477 130.137053 
L 153.517017 127.515836 
L 153.659288 127.5573 
L 153.801558 127.72132 
L 153.848982 127.620689 
L 153.991252 127.422813 
L 154.038675 127.449027 
L 154.133522 127.362619 
L 154.465486 126.354343 
L 154.939721 123.608706 
L 154.987144 123.645464 
L 155.366532 124.325387 
L 155.556225 121.203857 
L 156.077883 108.730386 
L 156.362424 109.527 
L 156.694388 105.389233 
L 156.978929 103.197798 
L 157.358316 98.435884 
L 157.785127 95.278 
L 158.069668 94.785777 
L 158.354208 95.595694 
L 158.591326 94.892248 
L 158.638749 94.877797 
L 158.781019 94.208211 
L 159.444947 81.388066 
L 159.492371 81.363539 
L 159.634641 82.60495 
L 159.682065 82.492731 
L 159.776912 82.290373 
L 160.061452 79.562635 
L 160.251146 78.850042 
L 160.488263 77.839582 
L 160.677957 78.026028 
L 160.867651 78.960943 
L 161.768696 86.241424 
L 162.195507 90.924817 
L 162.385201 88.909223 
L 162.906859 78.206414 
L 162.954282 78.277398 
L 163.049129 78.47104 
L 163.33367 74.930097 
L 163.47594 75.00242 
L 163.61821 74.345321 
L 163.855327 76.375804 
L 164.803796 88.937784 
L 165.230607 97.339713 
L 165.609995 104.939647 
L 166.605887 83.312512 
L 166.65331 83.734835 
L 166.985274 86.383794 
L 167.317238 89.720365 
L 167.981167 103.689683 
L 168.882212 124.561489 
L 168.929635 124.069908 
L 169.119329 121.164942 
L 169.40387 113.226455 
L 169.640987 109.493676 
L 169.878104 104.831355 
L 170.020375 105.450458 
L 170.447185 110.505829 
L 171.016267 123.049154 
L 171.727618 139.564222 
L 172.249276 149.845826 
L 172.2967 149.890706 
L 172.486393 147.421366 
L 173.292592 130.636778 
L 173.577132 132.430697 
L 174.003943 138.043182 
L 174.762718 150.15454 
L 175.568917 162.807301 
L 175.711187 162.749636 
L 176.517386 148.177353 
L 176.754503 145.638749 
L 176.944197 145.648136 
L 177.13389 145.739529 
L 177.418431 145.292721 
L 177.655548 145.338016 
L 177.750395 145.384991 
L 177.940089 145.479746 
L 178.082359 145.358217 
L 178.129783 145.299419 
L 178.177206 145.406768 
L 178.319476 145.82787 
L 178.556594 146.585772 
L 178.698864 146.649979 
L 178.841134 146.139424 
L 179.125675 141.436228 
L 179.552486 132.809012 
L 179.599909 133.16635 
L 179.694756 133.926243 
L 179.74218 133.689466 
L 179.88445 132.417441 
L 180.263838 127.975808 
L 181.212306 118.935723 
L 181.591694 116.353845 
L 181.876234 113.983284 
L 182.065928 112.974028 
L 182.113352 112.851882 
L 182.350469 109.172827 
L 182.824703 99.881464 
L 182.872127 100.083281 
L 183.06182 101.128331 
L 183.109244 101.448929 
L 183.156667 101.019965 
L 184.15256 92.135373 
L 184.484524 90.443243 
L 184.721641 89.012793 
L 185.053605 88.149421 
L 185.101028 88.112308 
L 185.148452 88.199435 
L 185.432992 89.17725 
L 185.527839 90.094696 
L 185.575263 90.019517 
L 185.67011 89.832806 
L 186.239191 78.784393 
L 186.334038 79.226346 
L 186.523732 80.703 
L 186.571155 80.160851 
L 186.855696 77.907414 
L 187.18766 77.644829 
L 187.519624 76.876186 
L 187.567047 76.98665 
L 187.804164 77.616594 
L 188.278399 80.195857 
L 188.84748 87.327641 
L 188.942327 87.693248 
L 189.179444 84.50552 
L 189.606255 77.964525 
L 189.653679 77.558542 
L 189.701102 77.781938 
L 189.795949 78.230444 
L 189.843372 78.166275 
L 189.938219 78.056136 
L 190.08049 76.859254 
L 190.127913 77.050909 
L 190.22276 77.495595 
L 190.270183 77.435223 
L 190.36503 77.248309 
L 190.412454 77.326577 
L 190.649571 78.100375 
L 190.886688 80.355171 
L 192.024851 96.196263 
L 192.214544 99.25531 
L 192.261968 99.177187 
L 192.356815 98.99267 
L 192.925896 90.107287 
L 192.973319 90.550302 
L 193.068166 91.547841 
L 193.11559 90.995237 
L 193.352707 88.054051 
L 193.40013 88.220251 
L 193.542401 88.796906 
L 194.016635 92.290101 
L 194.443446 99.523444 
L 195.629032 120.711123 
L 195.676455 120.555656 
L 195.818726 119.667843 
L 195.960996 117.484752 
L 196.245537 112.797652 
L 196.577501 110.578451 
L 196.624924 110.053118 
L 196.672348 110.117604 
L 196.909465 110.674109 
L 197.336276 118.210577 
L 198.095051 135.861892 
L 198.901249 157.787225 
L 198.996096 157.128647 
L 199.138367 155.525599 
L 199.32806 151.649741 
L 199.897142 135.192098 
L 200.039412 134.51879 
L 200.086835 134.7792 
L 200.513646 136.791677 
L 200.84561 140.35791 
L 201.651809 153.027523 
L 202.173467 160.819273 
L 202.36316 159.57792 
L 202.600278 155.383268 
L 202.979665 148.841907 
L 203.169359 146.338776 
L 203.4539 142.58729 
L 203.691017 141.695178 
L 203.928134 140.904895 
L 204.165251 140.008057 
L 204.260098 140.291189 
L 204.449792 140.738363 
L 204.734332 139.581858 
L 205.350837 135.324044 
L 205.445684 135.212263 
L 206.157036 123.890805 
L 206.346729 124.807347 
L 206.441576 125.799439 
L 206.489 125.303066 
L 207.058081 117.508554 
L 207.816856 102.651243 
L 208.29109 93.310504 
L 208.623054 90.175615 
L 208.907595 88.383031 
L 209.429253 77.813675 
L 209.476676 78.145731 
L 209.618947 79.875204 
L 209.856064 83.211523 
L 210.472569 75.177539 
L 210.994226 65.105681 
L 211.468461 60.10231 
L 211.563308 59.597171 
L 211.658155 59.64294 
L 211.753002 59.570172 
L 212.132389 58.447388 
L 212.511777 52.511847 
L 212.70147 50.193864 
L 212.748894 50.206661 
L 212.843741 50.172472 
L 213.128281 56.910463 
L 213.649939 52.944616 
L 214.21902 49.140143 
L 214.266444 48.934517 
L 214.313867 49.184745 
L 214.882949 51.79127 
L 214.977795 51.758207 
L 215.309759 54.389775 
L 215.546877 56.731301 
L 215.831417 53.894585 
L 216.115958 51.057849 
L 216.400499 54.248388 
L 216.447922 53.762639 
L 216.637616 52.584522 
L 216.779886 52.456371 
L 217.017003 52.540882 
L 217.159274 53.151987 
L 217.443814 55.686853 
L 218.581977 71.296807 
L 218.961364 77.964333 
L 219.151058 75.487652 
L 219.483022 69.509957 
L 219.530446 69.105606 
L 219.577869 69.436008 
L 219.672716 70.110813 
L 219.720139 69.964741 
L 219.814986 69.685408 
L 219.957257 67.644386 
L 220.00468 67.790876 
L 220.289221 69.408202 
L 220.905725 77.083142 
L 221.711924 94.027274 
L 222.233582 106.0288 
L 222.375852 105.598463 
L 222.75524 98.766379 
L 222.944933 96.408334 
L 223.087204 96.886583 
L 223.276897 94.687906 
L 223.324321 94.69597 
L 223.371744 94.653753 
L 223.988249 102.29528 
L 224.699601 118.784829 
L 225.648069 141.506088 
L 225.837763 140.396473 
L 226.07488 136.224418 
L 226.311998 132.853455 
L 226.359421 132.677241 
L 226.643962 127.59845 
L 226.738808 128.186919 
L 226.975926 129.899365 
L 227.260466 133.556394 
L 228.019241 148.53047 
L 228.872863 165.424267 
L 229.062557 167.814977 
L 229.252251 165.79347 
L 229.773909 156.603016 
L 230.20072 151.903158 
L 230.248143 152.241181 
L 231.054341 157.046807 
L 232.145081 162.229223 
L 232.192504 162.622039 
L 232.239927 162.260344 
L 232.382198 160.562644 
L 233.093549 148.081191 
L 233.188396 147.956274 
L 233.567784 143.995724 
L 233.662631 142.964817 
L 234.279135 134.417435 
L 235.891532 111.96426 
L 236.27092 106.964819 
L 236.318343 106.793763 
L 236.602884 109.121555 
L 238.642092 82.215255 
L 238.926632 80.912158 
L 239.021479 80.543457 
L 239.495714 75.201577 
L 239.590561 75.150124 
L 239.875101 80.196901 
L 240.017372 80.015838 
L 240.728723 75.032146 
L 240.918417 73.863387 
L 241.202958 71.297963 
L 241.487498 70.033585 
L 241.724615 69.735884 
L 241.914309 70.13778 
L 242.151426 71.881634 
L 242.293697 73.545189 
L 242.34112 73.073643 
L 242.862778 68.049998 
L 243.005048 68.545153 
L 243.289589 71.927663 
L 243.479283 71.153744 
L 243.526706 71.181559 
L 243.668976 71.286177 
L 243.7164 71.346818 
L 244.000941 70.238871 
L 244.332905 70.637193 
L 244.807139 73.2422 
L 245.708184 83.425673 
L 245.803031 83.130994 
L 245.897878 82.640096 
L 246.040148 81.293691 
L 246.229842 79.606315 
L 246.277266 79.430168 
L 246.372113 79.458182 
L 246.419536 79.488015 
L 246.704077 82.734099 
L 246.846347 81.604368 
L 246.89377 81.714719 
L 247.083464 82.629914 
L 247.510275 86.368582 
L 247.842239 91.871337 
L 249.122672 117.352586 
L 249.217519 116.983085 
L 249.264942 116.783077 
L 249.596906 109.27926 
L 249.834024 104.282606 
L 250.023717 102.207344 
L 250.260835 99.179696 
L 250.545375 99.130465 
L 250.735069 100.279467 
L 251.256727 106.973187 
L 252.110349 125.116125 
L 252.489736 133.824478 
L 252.53716 134.082435 
L 252.774277 131.094862 
L 253.533052 118.245042 
L 253.580475 118.423267 
L 254.05471 121.247397 
L 254.244404 123.929838 
L 254.813485 135.39233 
L 255.71453 153.354573 
L 255.809377 154.393427 
L 255.8568 154.044415 
L 256.046494 152.043026 
L 256.283611 147.158564 
L 256.520729 144.143836 
L 256.662999 143.585081 
L 256.94754 139.516564 
L 256.994963 139.740077 
L 257.611468 143.815293 
L 258.085702 150.720305 
L 258.46509 154.814214 
L 258.74963 157.749361 
L 259.034171 162.183139 
L 259.176441 163.053605 
L 259.223865 163.129234 
L 259.460982 159.68445 
L 260.26718 144.875741 
L 260.409451 144.459459 
L 260.646568 142.835598 
L 260.741415 143.170928 
L 260.931109 143.601551 
L 261.263073 143.001457 
L 261.547613 141.75459 
L 261.879577 140.792568 
L 262.021848 140.421508 
L 262.069271 140.27737 
L 262.116695 140.479276 
L 262.306388 141.777146 
L 262.496082 142.602267 
L 262.685776 138.897336 
L 263.254857 122.224994 
L 263.491974 119.271878 
L 263.918785 112.881678 
L 264.155902 109.337877 
L 264.487867 104.231141 
L 264.914677 100.283746 
L 265.199218 98.797507 
L 265.246642 98.808856 
L 265.483759 98.727539 
L 265.91057 96.323015 
L 266.621921 80.530834 
L 266.669345 80.80434 
L 266.764192 81.452331 
L 267.665237 71.540327 
L 267.902354 69.989408 
L 267.949778 70.215779 
L 268.234318 71.339362 
L 268.376589 71.432132 
L 268.471435 71.604949 
L 268.518859 71.511035 
L 268.613706 71.289541 
L 268.661129 71.403997 
L 268.898246 72.271869 
L 269.182787 75.263546 
L 269.277634 74.964261 
L 269.372481 74.46987 
L 269.514751 73.019055 
L 270.036409 66.111562 
L 270.178679 66.087408 
L 270.415796 63.461059 
L 270.60549 63.132145 
L 270.890031 63.526457 
L 271.127148 64.842167 
L 272.217887 74.396317 
L 272.739545 82.838151 
L 272.786968 82.170307 
L 273.545744 73.016097 
L 273.593167 72.915347 
L 273.735437 70.961007 
L 273.830284 71.132549 
L 273.877708 71.189673 
L 274.636483 76.638571 
L 275.205564 85.111041 
L 276.011762 101.766754 
L 276.154033 102.041049 
L 276.39115 99.512176 
L 276.723114 94.670901 
L 276.770537 94.695478 
L 276.865384 94.710786 
L 277.149925 92.509715 
L 277.244772 92.916615 
L 277.387042 93.82831 
L 277.719006 97.307366 
L 278.240664 106.812517 
L 279.236556 129.160473 
L 279.473673 133.400794 
L 279.56852 133.735172 
L 279.615944 133.49013 
L 279.710791 133.025441 
L 280.422142 122.88954 
L 280.564413 123.108028 
L 281.038647 128.745827 
L 281.702575 142.184045 
L 282.840738 166.200268 
L 282.888161 165.8194 
L 283.125278 163.045939 
L 283.599513 154.673417 
L 283.83663 150.528697 
L 283.9789 151.34091 
L 284.832522 160.809197 
L 286.112955 176.32431 
L 286.397496 172.105743 
L 286.87173 161.916645 
L 287.535658 155.707081 
L 287.725352 155.342568 
L 288.152163 154.290502 
L 288.38928 154.0506 
L 288.53155 154.178128 
L 288.578974 154.11385 
L 288.721244 153.687671 
L 289.100632 152.119015 
L 289.290326 151.910497 
L 289.385172 151.689348 
L 289.717136 143.241628 
L 290.333641 131.141386 
L 290.428488 129.930987 
L 290.807876 124.810625 
L 292.420273 108.037005 
L 292.79966 106.930472 
L 293.131624 100.057895 
L 293.416165 94.370078 
L 293.511012 93.904131 
L 293.558435 94.145614 
L 293.748129 94.642043 
L 293.795552 94.634532 
L 294.222363 90.550105 
L 294.506904 88.680314 
L 294.933715 83.654669 
L 295.360526 80.853809 
L 295.597643 80.278881 
L 295.645066 80.29489 
L 296.071877 81.501429 
L 296.308995 79.127682 
L 296.783229 73.168986 
L 296.830652 73.359947 
L 296.925499 73.683562 
L 297.06777 75.910152 
L 297.162617 75.684423 
L 297.257463 75.262545 
L 297.731698 72.949956 
L 298.111085 71.99246 
L 298.300779 71.928909 
L 298.348202 71.890504 
L 298.72759 73.599705 
L 299.201824 76.421881 
L 299.486365 79.28329 
L 299.533788 79.158495 
L 299.723482 78.141088 
L 300.197717 74.85238 
L 300.482257 78.172045 
L 300.671951 77.119713 
L 300.719374 77.146975 
L 300.766798 77.126298 
L 301.098762 78.068459 
L 301.335879 79.41577 
L 301.62042 82.506949 
L 302.663736 99.375087 
L 303.043123 106.444268 
L 303.185393 106.198655 
L 303.612204 102.441874 
L 303.754475 101.978944 
L 304.133862 94.626904 
L 304.276132 93.611692 
L 304.465826 93.264279 
L 304.65552 93.741694 
L 304.940061 95.63764 
L 305.414295 101.394123 
L 305.888529 110.53169 
L 306.410187 120.876192 
L 306.457611 120.953411 
L 306.647304 118.916837 
L 307.026692 113.648649 
L 307.216386 112.030191 
L 307.453503 109.159696 
L 307.595773 109.73524 
L 307.643197 109.59869 
L 307.738044 109.284179 
L 307.785467 109.460864 
L 307.975161 110.805119 
L 308.259701 114.633155 
L 308.828783 125.577969 
L 309.634981 143.214435 
L 309.729828 144.473363 
L 309.777251 144.145248 
L 309.919522 142.738435 
L 310.536027 134.183072 
L 310.630873 132.76514 
L 310.820567 130.396431 
L 310.867991 130.264469 
L 311.484495 134.418085 
L 312.195847 145.694841 
L 313.144316 160.539043 
L 313.191739 160.151326 
L 313.334009 158.436972 
L 313.571127 152.030635 
L 313.997938 145.236154 
L 314.140208 142.551722 
L 314.235055 142.779949 
L 314.424749 143.23427 
L 314.614442 144.31847 
L 315.088677 148.25465 
L 315.989722 155.393327 
L 316.274263 160.447218 
L 316.36911 160.281499 
L 316.416533 160.193042 
L 316.748497 151.899168 
L 317.127885 141.82183 
L 317.507272 135.880878 
L 317.744389 134.188393 
L 318.313471 129.526288 
L 318.692858 127.592012 
L 318.740282 127.621628 
L 319.024822 127.751542 
L 319.167093 127.679176 
L 319.261939 127.745094 
L 319.40421 126.917569 
L 319.451633 127.013841 
L 319.641327 127.230048 
L 319.68875 127.226552 
L 319.973291 121.395554 
L 320.542372 107.28291 
L 320.684643 106.617588 
L 320.969183 101.141851 
L 321.680535 93.611682 
L 321.917652 92.989193 
L 322.012499 92.893584 
L 322.107346 92.7192 
L 322.486733 90.526864 
L 322.676427 90.020274 
L 322.913544 91.352567 
L 323.103238 92.304743 
L 323.340355 89.061161 
L 323.81459 79.050353 
L 323.909437 79.346822 
L 323.95686 79.498027 
L 324.525941 73.486212 
L 324.810482 73.656847 
L 325.237293 72.846777 
L 325.284716 72.872855 
L 325.521833 73.137656 
L 325.806374 74.60745 
L 326.185762 78.027528 
L 326.517726 83.045676 
L 326.565149 82.469679 
L 326.944537 76.109678 
L 327.229077 72.724661 
L 327.371348 73.744946 
L 327.418771 73.578513 
L 327.561041 72.71202 
L 327.655888 71.662673 
L 327.750735 71.793669 
L 327.845582 72.042181 
L 327.940429 72.408646 
L 327.987852 72.171401 
L 328.082699 71.673952 
L 328.130123 71.724974 
L 328.319816 72.224427 
L 328.50951 73.315601 
L 328.983745 78.070373 
L 329.695096 88.279985 
L 329.932213 91.564737 
L 330.121907 90.471867 
L 330.596142 85.540761 
L 330.643565 85.575832 
L 330.785835 86.78252 
L 330.833259 86.296314 
L 331.070376 84.57729 
L 331.734304 89.521486 
L 331.923998 92.448425 
L 333.346701 117.933902 
L 333.394124 117.881684 
L 333.488971 117.846611 
L 333.773512 114.437699 
L 333.915782 112.384514 
L 333.963206 112.523234 
L 334.058053 112.80696 
L 334.105476 112.731992 
L 334.200323 112.610687 
L 334.342593 110.345099 
L 334.43744 110.623186 
L 334.532287 111.017352 
L 334.674557 111.986887 
L 335.053945 117.124203 
L 336.761189 148.98972 
L 336.808612 148.770392 
L 336.950882 147.726251 
L 337.757081 138.012429 
L 338.089045 140.453937 
L 338.563279 146.094716 
L 340.033406 168.778887 
L 340.080829 168.476247 
L 340.270523 166.650382 
L 340.460217 162.890032 
L 340.839605 157.048575 
L 341.029298 155.128808 
L 341.266415 152.801016 
L 341.313839 152.724924 
L 341.361262 152.787671 
L 341.550956 152.838464 
L 341.59838 152.803778 
L 342.214884 155.489676 
L 342.499425 156.656833 
L 342.594272 156.836005 
L 342.641695 156.746522 
L 342.736542 156.533741 
L 342.783966 156.645183 
L 342.878812 156.90545 
L 342.926236 156.852404 
L 343.021083 156.714739 
L 343.2582 157.596159 
L 343.305623 157.834942 
L 343.495317 155.984255 
L 343.732434 150.50222 
L 344.206669 139.059887 
L 344.491209 135.69102 
L 344.965444 130.50258 
L 345.629372 123.760461 
L 346.340724 116.088345 
L 346.625264 114.439383 
L 346.720111 114.297284 
L 346.957228 108.93536 
L 347.431463 96.909635 
L 347.573733 97.051602 
L 347.716003 97.889015 
L 348.332508 91.539681 
L 349.280977 78.092321 
L 349.660364 76.018512 
L 350.276869 70.601668 
L 350.656257 65.375188 
L 350.70368 64.941162 
L 350.798527 65.023595 
L 350.84595 65.068709 
L 351.130491 69.099238 
L 351.177914 69.008922 
L 351.272761 68.85304 
L 351.652149 64.88675 
L 352.410924 59.5403 
L 352.600618 59.341207 
L 352.695464 59.419335 
L 352.980005 57.765645 
L 353.169699 57.842609 
L 353.264546 57.997529 
L 353.549086 59.518137 
L 354.023321 56.458161 
L 354.070744 56.535845 
L 354.213015 56.610489 
L 354.260438 56.68011 
L 354.544979 61.262397 
L 354.592402 60.93411 
L 354.876943 59.773877 
L 354.97179 59.687394 
L 355.11406 58.748677 
L 355.161483 58.88558 
L 355.351177 59.268325 
L 355.683141 59.517477 
L 355.825411 59.163993 
L 355.872835 59.300263 
L 356.441916 61.652166 
L 356.679033 63.67811 
L 356.963574 67.543231 
L 357.010997 67.536781 
L 357.105844 67.524872 
L 357.485232 64.797187 
L 357.532655 64.640016 
L 357.580079 64.862366 
L 357.722349 66.034692 
L 357.959466 68.936535 
L 358.00689 68.678182 
L 358.14916 68.078893 
L 358.196583 68.101521 
L 358.244007 68.063963 
L 358.528548 69.556671 
L 358.623394 69.306786 
L 358.670818 69.205721 
L 358.718241 69.332753 
L 358.955359 70.569573 
L 359.619287 77.332841 
L 359.903827 82.631576 
L 360.140945 85.472688 
L 360.330638 85.273309 
L 360.425485 84.896363 
L 360.662602 83.714885 
L 361.089413 85.60337 
L 361.136837 85.508335 
L 361.231684 85.248617 
L 361.753341 87.87071 
L 362.180152 92.566321 
L 362.654387 99.647461 
L 363.365738 109.744513 
L 363.792549 106.890905 
L 363.887396 107.096791 
L 364.07709 107.389046 
L 364.21936 106.442196 
L 364.266784 106.73824 
L 364.456478 107.548925 
L 364.503901 107.652991 
L 364.978135 112.332165 
L 365.59464 120.992643 
L 366.353415 132.423701 
L 366.590532 130.618019 
L 367.349307 122.865672 
L 367.491578 122.906595 
L 368.202929 126.193829 
L 368.772011 131.274027 
L 369.103975 132.996816 
L 369.388515 135.240317 
L 369.483362 136.304146 
L 369.530786 136.163006 
L 369.625632 135.885513 
L 370.716372 117.128888 
L 371.000912 115.944068 
L 371.143183 115.504853 
L 371.285453 115.513777 
L 371.569993 115.669931 
L 371.617417 115.741253 
L 371.949381 113.800024 
L 372.281345 112.795669 
L 372.471039 112.27154 
L 372.613309 111.395208 
L 372.660733 111.47169 
L 373.04012 112.357001 
L 373.087544 112.219395 
L 373.18239 111.934321 
L 373.561778 105.443594 
L 374.083436 95.767395 
L 374.652517 90.515299 
L 375.553562 80.045274 
L 376.359761 66.769479 
L 376.739148 63.526599 
L 377.118536 62.404893 
L 377.165959 62.344655 
L 377.213383 62.430004 
L 377.30823 62.612964 
L 377.735041 60.481459 
L 377.829888 60.504741 
L 378.019581 60.668726 
L 378.256698 60.860605 
L 378.304122 60.854317 
L 378.446392 60.319087 
L 378.493816 60.387955 
L 378.683509 60.592353 
L 378.730933 60.624507 
L 378.778356 60.537586 
L 378.873203 60.404386 
L 379.252591 58.218284 
L 379.679402 56.155278 
L 379.916519 55.29182 
L 380.153636 55.290316 
L 380.295906 56.119133 
L 380.34333 55.843878 
L 380.580447 54.888686 
L 381.244375 55.978526 
L 381.576339 57.245991 
L 381.71861 58.429739 
L 381.766033 58.269333 
L 381.955727 57.831553 
L 382.00315 57.783073 
L 382.287691 58.318185 
L 382.809349 59.005769 
L 383.046466 60.052005 
L 383.283583 61.804028 
L 383.37843 61.428356 
L 383.425853 61.265467 
L 383.473277 61.368488 
L 383.994935 63.364364 
L 384.658863 66.708407 
L 384.848557 67.646708 
L 385.03825 68.348239 
L 386.508377 77.576354 
L 386.982611 80.747207 
L 387.693963 86.893065 
L 387.978504 89.414815 
L 388.357891 92.37546 
L 389.258937 100.463969 
L 389.496054 102.436386 
L 389.590901 102.766424 
L 390.112558 106.824779 
L 390.918757 113.883587 
L 391.013604 114.525693 
L 391.061027 114.496429 
L 391.108451 114.53666 
L 392.34146 122.665291 
L 392.720848 125.119049 
L 393.953857 132.24397 
L 394.238398 134.057004 
L 394.617785 135.447866 
L 395.661101 140.514339 
L 395.803371 141.346898 
L 395.898218 141.280495 
L 395.945642 141.26135 
L 396.277606 142.27849 
L 396.75184 143.609884 
L 397.178651 144.871227 
L 397.368345 146.156546 
L 397.463192 145.776846 
L 397.510615 145.609361 
L 397.558038 145.634149 
L 397.747732 146.058397 
L 398.079696 146.858671 
L 398.506507 147.746123 
L 398.648778 147.761613 
L 398.933318 149.572111 
L 399.028165 149.349976 
L 399.217859 149.143678 
L 399.692093 149.806701 
L 399.881787 149.910372 
L 400.071481 149.973668 
L 400.213751 149.655844 
L 400.640562 151.236824 
L 400.830256 150.795349 
L 400.877679 150.819763 
L 401.01995 150.905769 
L 401.257067 151.071688 
L 401.399337 151.04906 
L 401.778725 151.315241 
L 401.920995 151.321691 
L 402.110689 151.861438 
L 402.205536 152.428077 
L 402.252959 152.187282 
L 402.442653 151.585458 
L 402.490076 151.535448 
L 402.5375 151.598799 
L 402.869464 151.726993 
L 403.343698 151.692559 
L 403.485968 151.359408 
L 403.770509 152.710021 
L 403.817933 152.484519 
L 404.05505 151.58291 
L 404.244743 151.815332 
L 404.292167 151.780462 
L 404.956095 151.367429 
L 405.050942 151.071881 
L 405.098365 151.252306 
L 405.335483 151.953227 
L 405.477753 152.196003 
L 405.525176 152.026493 
L 405.762294 151.432014 
L 405.999411 151.717657 
L 406.331375 151.913335 
L 406.521069 152.154173 
L 406.568492 152.098448 
L 406.615915 152.097506 
L 407.042726 154.045451 
L 407.137573 153.673862 
L 407.184997 153.518748 
L 407.23242 153.61816 
L 408.275736 156.663551 
L 408.323159 156.70905 
L 408.6077 158.190387 
L 408.655123 157.936349 
L 408.939664 156.859851 
L 409.176781 156.085701 
L 409.698439 153.155332 
L 410.409791 146.856187 
L 410.884025 141.277219 
L 412.496422 123.314586 
L 413.065503 118.702053 
L 413.30262 117.300659 
L 413.350044 117.323718 
L 413.444891 117.43114 
L 413.729431 115.045481 
L 413.966549 114.106434 
L 414.345936 112.618638 
L 414.488206 112.406635 
L 414.583053 112.118403 
L 414.725324 110.432694 
L 414.772747 110.877192 
L 414.915017 111.911423 
L 414.962441 111.887365 
L 415.009864 111.940496 
L 415.294405 110.256084 
L 415.436675 110.404785 
L 415.768639 109.581655 
L 416.05318 109.084997 
L 416.100603 109.110334 
L 416.19545 109.026814 
L 416.527414 108.500209 
L 416.717108 108.253499 
L 417.523307 100.605333 
L 417.902694 96.01674 
L 417.997541 95.499009 
L 418.092388 95.611404 
L 418.187235 95.960586 
L 418.282082 96.546988 
L 418.329505 96.366214 
L 418.424352 95.930864 
L 418.471775 96.188134 
L 418.898586 98.391165 
L 419.467668 100.030395 
L 419.562515 100.14684 
L 419.847055 102.150834 
L 419.894479 101.951718 
L 420.036749 101.521443 
L 420.084172 101.558893 
L 420.46356 101.518376 
L 420.890371 100.789883 
L 421.127488 99.888539 
L 421.174911 100.080423 
L 421.412029 100.730806 
L 421.554299 100.873976 
L 421.743993 100.016657 
L 421.791416 100.074026 
L 421.83884 100.062131 
L 422.12338 99.376116 
L 422.265651 99.212881 
L 422.407921 98.57343 
L 422.502768 98.620656 
L 422.739885 98.752296 
L 422.977002 99.332218 
L 423.119273 100.06533 
L 423.166696 99.781578 
L 423.261543 99.118965 
L 423.308966 99.251085 
L 423.403813 99.613876 
L 423.451237 99.562514 
L 423.593507 99.358316 
L 423.735777 99.37714 
L 423.972894 99.20594 
L 424.399705 99.415841 
L 424.684246 100.741379 
L 424.731669 100.545649 
L 424.826516 100.120486 
L 424.921363 100.167554 
L 424.968787 100.184593 
L 425.822409 102.754311 
L 425.869832 102.643625 
L 425.964679 102.38049 
L 426.296643 104.902627 
L 426.581184 105.299071 
L 427.007995 107.117687 
L 427.956463 110.79649 
L 428.003887 110.649107 
L 428.098734 110.310741 
L 428.146157 110.394738 
L 428.335851 110.666128 
L 429.236896 111.55349 
L 429.521437 113.022728 
L 429.56886 112.771402 
L 429.711131 112.196933 
L 429.995671 112.381562 
L 430.327635 112.793034 
L 430.659599 113.279777 
L 430.707023 113.189435 
L 430.80187 113.01329 
L 431.08641 114.494321 
L 431.133834 114.294519 
L 431.370951 113.617547 
L 431.608068 113.813056 
L 432.224573 113.699804 
L 432.366843 113.109341 
L 432.414267 113.312378 
L 432.698807 114.252456 
L 432.793654 114.317658 
L 432.935925 113.612308 
L 432.983348 113.662222 
L 433.220465 113.921108 
L 433.599853 113.981715 
L 433.742123 114.043121 
L 433.931817 114.061412 
L 434.074087 113.914166 
L 434.358628 114.82242 
L 434.406051 114.521751 
L 434.595745 113.789105 
L 434.643168 113.730805 
L 434.690592 113.776675 
L 434.880286 113.752403 
L 434.975132 113.740998 
L 435.117403 113.76811 
L 435.35452 113.660569 
L 435.49679 113.656508 
L 435.639061 113.394586 
L 435.686484 113.52408 
L 435.828754 114.005864 
L 435.923601 114.548941 
L 435.971025 114.24965 
L 436.208142 113.348749 
L 436.445259 113.457868 
L 436.919493 113.314137 
L 437.061764 113.167262 
L 437.204034 112.238527 
L 437.251458 112.564609 
L 437.488575 113.874237 
L 437.867962 113.024497 
L 438.24735 112.848928 
L 438.769008 112.289689 
L 438.816431 112.390393 
L 439.195819 113.324747 
L 439.480359 112.261544 
L 439.670053 112.224634 
L 440.381405 111.908275 
L 440.571098 112.064469 
L 440.713369 112.644254 
L 440.760792 112.854039 
L 440.808216 112.566768 
L 440.997909 111.858425 
L 441.14018 111.807037 
L 441.28245 111.740559 
L 441.377297 111.741891 
L 441.519567 111.784823 
L 441.756684 111.714987 
L 441.898955 111.838248 
L 441.946378 111.761757 
L 442.041225 111.607583 
L 442.325766 113.153294 
L 442.373189 112.967506 
L 442.610306 112.341116 
L 443.037117 112.376135 
L 443.274234 112.26053 
L 443.416505 112.212574 
L 443.463928 112.151764 
L 443.606198 111.363469 
L 443.653622 111.651764 
L 443.890739 112.802842 
L 444.033009 112.787933 
L 444.222703 112.098974 
L 444.270127 112.120452 
L 445.076325 111.995214 
L 445.171172 112.085664 
L 445.218595 112.005709 
L 445.313442 111.856519 
L 445.360866 111.953005 
L 445.503136 112.307074 
L 445.597983 112.71066 
L 445.8351 111.734992 
L 445.97737 111.697115 
L 446.119641 111.645931 
L 446.309335 111.62712 
L 446.878416 111.342528 
L 447.162956 112.444941 
L 447.21038 112.195187 
L 447.447497 111.427281 
L 447.779461 111.451085 
L 447.969155 111.405895 
L 448.301119 111.318059 
L 448.443389 110.313706 
L 448.490813 110.679703 
L 448.72793 112.012995 
L 449.297011 111.042922 
L 449.960939 110.96907 
L 450.150633 110.964233 
L 450.435174 111.962835 
L 450.624868 111.057717 
L 450.672291 111.089995 
L 450.909408 111.123859 
L 451.525913 111.300386 
L 451.715607 111.301117 
L 452.000147 112.42816 
L 452.047571 112.151692 
L 452.237265 111.486424 
L 452.474382 111.367599 
L 452.853769 111.462059 
L 453.13831 111.414366 
L 453.28058 110.644268 
L 453.328004 110.913861 
L 453.565121 112.131537 
L 453.897085 111.152099 
L 454.371319 111.204441 
L 454.892977 110.912058 
L 454.940401 111.022451 
L 455.130094 111.514568 
L 455.272365 111.883053 
L 455.414635 111.008643 
L 455.509482 111.114197 
L 455.651752 111.096347 
L 456.363104 110.885543 
L 456.552798 110.627729 
L 456.600221 110.778205 
L 456.789915 111.470517 
L 456.837338 111.661217 
L 457.121879 110.456961 
L 457.54869 110.609907 
L 457.975501 110.388448 
L 458.117771 109.622491 
L 458.165194 109.864645 
L 458.402312 111.01469 
L 458.686852 110.049149 
L 459.20851 109.723021 
L 459.35078 109.697978 
L 459.445627 109.652001 
L 459.682745 109.235406 
L 459.730168 109.315439 
L 460.109556 110.196555 
L 460.394096 109.24098 
L 460.820907 108.487556 
L 460.963177 109.110958 
L 461.010601 109.02991 
L 461.200295 108.782552 
L 461.389988 108.691255 
L 461.674529 109.738823 
L 461.721952 109.396335 
L 461.816799 108.647337 
L 461.864223 108.671465 
L 462.006493 108.800437 
L 462.148763 108.750847 
L 462.291034 108.754115 
L 462.433304 108.632303 
L 462.575574 108.674891 
L 462.812692 108.42972 
L 462.954962 107.339265 
L 463.002385 107.721118 
L 463.239503 109.108171 
L 463.524043 108.161403 
L 463.666313 108.325278 
L 463.713737 108.201499 
L 463.856007 107.935299 
L 463.903431 107.966586 
L 464.093124 107.928852 
L 464.330242 107.790478 
L 464.567359 107.814353 
L 464.662206 107.696396 
L 464.946746 108.761442 
L 465.183864 107.628803 
L 465.800368 107.266322 
L 466.179756 107.050918 
L 466.227179 106.986184 
L 466.51172 108.179528 
L 466.559143 107.898415 
L 466.796261 107.016702 
L 467.033378 107.051924 
L 467.128225 107.13639 
L 467.365342 107.402102 
L 467.649882 107.057118 
L 467.792153 106.20976 
L 467.839576 106.436484 
L 468.124117 107.560676 
L 468.218964 107.687625 
L 468.503504 106.298476 
L 468.645775 106.49459 
L 468.693198 106.434324 
L 468.930315 106.279706 
L 469.167433 106.434424 
L 469.451973 106.266112 
L 469.499397 106.204252 
L 469.783937 107.40489 
L 469.831361 107.095475 
L 469.973631 106.397925 
L 470.021054 106.404384 
L 470.258172 106.349 
L 470.447865 106.368253 
L 470.779829 106.283471 
L 470.9221 106.214033 
L 471.06437 105.251701 
L 471.111794 105.565381 
L 471.348911 106.9306 
L 471.775722 106.202076 
L 472.534497 106.052603 
L 472.629344 106.183695 
L 472.676767 106.095742 
L 472.771614 105.908403 
L 473.056155 107.000469 
L 473.293272 106.003791 
L 473.672659 105.891649 
L 474.004623 105.830156 
L 474.146894 105.882052 
L 474.194317 105.853709 
L 474.336587 105.122867 
L 474.621128 107.051379 
L 474.668552 106.946987 
L 474.905669 106.499746 
L 474.953092 106.557803 
L 475.522173 107.629125 
L 475.711867 108.289648 
L 476.233525 111.297685 
L 476.328372 112.374276 
L 476.423219 112.27051 
L 476.470642 112.243831 
L 476.9923 114.018822 
L 477.181994 114.165023 
L 477.371688 112.813843 
L 477.513958 110.382381 
L 477.751075 106.697405 
L 478.462427 100.055254 
L 478.936661 98.448553 
L 479.316049 97.131457 
L 479.505742 97.752443 
L 479.600589 98.359898 
L 479.790283 97.019935 
L 479.837706 97.033897 
L 479.88513 97.001394 
L 480.0274 97.340579 
L 480.074824 97.280093 
L 480.264517 97.00541 
L 480.406788 96.583778 
L 480.643905 96.131428 
L 480.738752 96.109135 
L 481.023292 94.981808 
L 481.165563 94.973539 
L 481.355257 94.577853 
L 481.734644 93.074122 
L 481.876914 92.924272 
L 482.019185 93.366207 
L 482.066608 93.3197 
L 482.208878 93.249666 
L 482.445996 93.396746 
L 482.493419 93.313193 
L 482.588266 93.13688 
L 482.872807 94.850118 
L 482.92023 94.800146 
L 483.157347 94.674811 
L 483.394464 94.86355 
L 483.536735 94.762394 
L 483.726429 94.689634 
L 483.916122 95.009814 
L 483.963546 94.982941 
L 484.058393 95.043918 
L 484.153239 95.184496 
L 484.200663 95.150891 
L 484.29551 95.052204 
L 484.58005 96.64534 
L 484.627474 96.445782 
L 484.864591 95.881547 
L 485.243979 96.328541 
L 485.433672 96.493154 
L 485.67079 96.527093 
L 486.050177 96.900692 
L 486.287294 97.865494 
L 486.334718 97.60369 
L 486.429565 97.03564 
L 486.524411 97.096719 
L 486.856376 97.302708 
L 487.425457 98.026969 
L 487.567727 97.671249 
L 487.994538 99.703695 
L 488.136808 99.108721 
L 488.231655 99.169771 
L 488.373926 99.335594 
L 489.132701 100.342554 
L 489.274971 99.52971 
L 489.322394 99.917357 
L 489.606935 101.651124 
L 489.701782 101.797224 
L 489.749205 101.690366 
L 489.844052 101.436507 
L 489.891476 101.498891 
L 490.413134 102.174428 
L 490.650251 102.402185 
L 490.839944 102.56464 
L 490.982215 101.635182 
L 491.029638 102.062523 
L 491.266755 103.715134 
L 491.835837 103.028876 
L 492.357495 103.026347 
L 492.499765 103.067582 
L 492.547188 103.034489 
L 492.689459 102.217552 
L 492.736882 102.573544 
L 492.973999 104.066363 
L 493.163693 103.879913 
L 493.25854 103.550702 
L 493.305963 103.568126 
L 493.495657 103.623314 
L 493.590504 103.689686 
L 493.780198 103.821195 
L 493.875045 103.886418 
L 494.017315 104.043305 
L 494.064738 104.016294 
L 494.254432 104.107132 
L 494.396702 103.644749 
L 494.823513 105.572495 
L 494.965784 104.984406 
L 495.060631 105.04931 
L 495.202901 105.217819 
L 495.440018 105.428012 
L 495.866829 105.6173 
L 496.009099 105.78901 
L 496.103946 106.015263 
L 496.15137 105.973768 
L 496.246217 105.881438 
L 496.530757 107.140099 
L 496.578181 106.914998 
L 496.720451 106.40763 
L 496.767874 106.420891 
L 496.910145 106.466036 
L 497.81119 107.239389 
L 497.95346 107.098603 
L 498.238001 108.478944 
L 498.285425 108.219635 
L 498.475118 107.568768 
L 498.522542 107.502968 
L 498.569965 107.557358 
L 498.854506 107.757131 
L 499.518434 108.098136 
L 499.660704 107.057586 
L 499.708128 107.486249 
L 499.945245 109.149717 
L 500.372056 108.498065 
L 500.419479 108.537342 
L 500.84629 108.694676 
L 500.988561 108.709217 
L 501.178254 108.76954 
L 501.273101 108.840096 
L 501.367948 108.990135 
L 501.415372 108.911863 
L 501.510218 108.742704 
L 501.794759 110.362616 
L 501.842182 110.057954 
L 502.0793 108.919344 
L 502.458687 109.050034 
L 502.506111 109.118566 
L 502.553534 109.08283 
L 502.790651 108.96812 
L 502.932922 109.09576 
L 502.980345 109.025879 
L 503.075192 108.937187 
L 503.217462 107.892168 
L 503.264886 108.210516 
L 503.502003 109.755396 
L 503.549426 109.722823 
L 503.644273 109.715126 
L 503.786544 108.901916 
L 503.88139 109.050857 
L 504.213354 109.314329 
L 504.355625 108.730222 
L 504.403048 108.94751 
L 504.640165 109.878298 
L 504.687589 109.838912 
L 504.924706 109.491342 
L 505.066976 108.910908 
L 505.1144 109.158658 
L 505.351517 109.948911 
L 505.730905 109.322206 
L 506.584526 109.203378 
L 506.726797 109.251226 
L 506.77422 109.225197 
L 506.916491 108.292905 
L 506.963914 108.580705 
L 507.201031 109.921815 
L 507.485572 109.069885 
L 507.580419 109.140532 
L 507.770112 109.163445 
L 508.00723 109.229444 
L 508.102077 109.225381 
L 508.196923 109.142956 
L 508.244347 109.196042 
L 508.386617 109.372537 
L 508.528888 109.324072 
L 508.623734 109.315318 
L 508.766005 108.172983 
L 508.813428 108.553202 
L 509.050545 109.920333 
L 509.240239 109.704835 
L 509.335086 109.301944 
L 509.382509 109.31736 
L 509.572203 109.38786 
L 509.951591 109.524217 
L 510.188708 109.591497 
L 510.425825 109.652929 
L 510.615519 109.682799 
L 510.757789 109.431861 
L 511.04233 110.59054 
L 511.089753 110.331621 
L 511.279447 109.689917 
L 511.421717 109.624494 
L 512.227916 109.793686 
L 512.41761 109.708431 
L 512.465033 109.675216 
L 512.607303 108.991584 
L 512.654727 109.229966 
L 512.891844 110.27361 
L 513.034114 110.47443 
L 513.223808 109.760755 
L 513.271231 109.771489 
L 513.413502 109.83473 
L 513.745466 109.974932 
L 514.2197 109.917423 
L 514.599088 109.473232 
L 514.646511 109.567176 
L 515.025899 110.492564 
L 515.215593 109.659568 
L 515.263016 109.677283 
L 515.59498 109.651405 
L 515.879521 109.761764 
L 516.211485 109.778797 
L 516.401179 109.850836 
L 516.638296 109.765291 
L 516.733143 109.601551 
L 517.017683 111.001519 
L 517.065107 110.703528 
L 517.302224 109.809297 
L 517.539341 109.933731 
L 518.013575 109.910534 
L 518.535233 109.824162 
L 518.63008 109.547334 
L 518.724927 109.07313 
L 518.77235 109.317298 
L 519.009468 110.363899 
L 519.151738 110.565833 
L 519.341432 109.853697 
L 519.388855 109.874745 
L 519.673396 109.822216 
L 519.910513 109.844736 
L 520.100207 109.763269 
L 520.289901 109.722416 
L 520.716712 109.929251 
L 520.858982 109.129535 
L 520.906405 109.410226 
L 521.143522 110.656535 
L 521.285793 110.743519 
L 521.475487 110.0344 
L 521.52291 110.048897 
L 521.949721 110.032901 
L 522.091991 110.105359 
L 522.329108 110.222476 
L 522.471379 110.177966 
L 522.708496 110.249961 
L 523.087884 109.890362 
L 523.135307 109.771514 
L 523.419848 111.059203 
L 523.467271 110.758573 
L 523.704388 109.871745 
L 524.036352 109.880614 
L 524.178623 109.909645 
L 524.320893 109.951268 
L 524.55801 109.871187 
L 525.032245 110.066414 
L 525.174515 110.013815 
L 525.269362 110.093882 
L 525.316785 110.01847 
L 525.411632 109.856831 
L 525.696173 111.144845 
L 525.743596 110.812402 
L 525.885866 110.079068 
L 525.93329 110.102058 
L 526.454948 109.967417 
L 526.929182 109.889592 
L 527.118876 109.850618 
L 527.59311 109.690333 
L 527.687957 109.373244 
L 527.735381 109.572917 
L 527.972498 110.784371 
L 528.019921 110.523436 
L 528.257038 109.721171 
L 528.636426 109.727793 
L 529.679742 109.854804 
L 529.822012 109.970055 
L 529.869435 109.89229 
L 529.964282 109.73312 
L 530.248823 110.791503 
L 530.296246 110.496735 
L 530.48594 109.790222 
L 530.62821 109.732249 
L 530.960175 109.749078 
L 531.292139 109.786174 
L 531.529256 109.873605 
L 532.00349 109.722509 
L 532.098337 109.407245 
L 532.145761 109.603569 
L 532.382878 110.704885 
L 532.430301 110.480616 
L 532.667418 109.762881 
L 533.473617 109.908547 
L 534.090122 109.896482 
L 534.232392 108.880077 
L 534.279815 109.192091 
L 534.516932 110.416945 
L 534.706626 110.219368 
L 534.89632 109.74754 
L 535.03859 109.701577 
L 535.655095 109.727719 
L 535.987059 109.769935 
L 536.319023 109.979316 
L 536.41387 109.901668 
L 536.508717 109.745224 
L 536.793258 110.932847 
L 536.840681 110.636785 
L 537.030375 109.930334 
L 537.077798 109.886185 
L 537.125222 109.969645 
L 537.220069 110.12686 
L 537.267492 110.057905 
L 537.362339 109.907205 
L 537.409762 109.969823 
L 537.504609 110.128656 
L 537.552033 110.036851 
L 537.64688 109.805122 
L 537.694303 109.858409 
L 537.836573 110.008908 
L 537.978844 109.95042 
L 538.07369 110.034248 
L 538.121114 109.977273 
L 538.215961 109.82236 
L 538.263384 109.886884 
L 538.358231 110.049176 
L 538.405655 109.985871 
L 538.642772 109.589028 
L 538.927312 110.78197 
L 538.974736 110.561508 
L 539.211853 109.85386 
L 539.401547 109.94598 
L 539.638664 109.869277 
L 539.875781 109.855005 
L 540.255169 109.977813 
L 540.539709 109.936051 
L 540.634556 110.015631 
L 540.776827 108.54423 
L 540.82425 108.999274 
L 541.061367 110.560075 
L 541.583025 109.892428 
L 541.677872 109.899089 
L 541.914989 109.994687 
L 542.626341 109.916129 
L 543.053152 109.69789 
L 543.337692 110.653904 
L 543.479963 109.749048 
L 543.574809 109.833336 
L 543.71708 109.774128 
L 543.811927 109.821828 
L 543.954197 109.967886 
L 544.143891 109.897334 
L 544.523278 109.959581 
L 544.760395 110.052402 
L 545.044936 110.07407 
L 545.187206 109.726002 
L 545.471747 111.037686 
L 545.519171 110.710922 
L 545.661441 109.986807 
L 545.708864 110.016433 
L 546.135675 109.913813 
L 547.036721 109.986779 
L 547.226414 109.765173 
L 547.321261 109.535634 
L 547.605802 110.973867 
L 547.653225 110.74937 
L 547.890343 110.057469 
L 548.080036 110.159393 
L 548.174883 110.092433 
L 548.317153 110.430073 
L 548.364577 110.350629 
L 548.459424 110.123838 
L 548.506847 110.207526 
L 548.601694 110.45278 
L 548.649118 110.374883 
L 548.743964 110.143871 
L 548.791388 110.199709 
L 548.886235 110.370463 
L 548.933658 110.30827 
L 549.123352 110.155465 
L 549.265622 110.112138 
L 549.313046 110.044279 
L 549.455316 108.914303 
L 549.502739 109.309424 
L 549.739857 110.826416 
L 550.071821 110.283042 
L 550.166668 110.373386 
L 550.403785 110.319221 
L 550.593479 110.297717 
L 550.830596 110.241902 
L 551.02029 110.218212 
L 551.30483 110.243544 
L 551.494524 110.066821 
L 551.541947 110.121326 
L 551.589371 110.156936 
L 551.636794 110.089301 
L 551.731641 109.938591 
L 552.016182 110.904385 
L 552.205876 109.977486 
L 552.253299 110.002108 
L 552.53784 110.026803 
L 552.917227 110.10101 
L 553.154344 110.206492 
L 553.770849 110.192678 
L 553.865696 110.043417 
L 554.150237 111.368155 
L 554.19766 111.12103 
L 554.387354 110.512166 
L 554.529624 110.468847 
L 554.861588 110.516831 
L 555.098705 110.625108 
L 555.193552 110.636265 
L 555.430669 110.584097 
L 555.85748 110.506553 
L 555.999751 109.834863 
L 556.047174 110.13643 
L 556.284291 111.28166 
L 556.568832 110.602702 
L 556.853373 110.519181 
L 557.944112 110.71293 
L 557.991535 110.656233 
L 558.133805 109.874 
L 558.181229 110.167877 
L 558.418346 111.445777 
L 558.60804 111.271418 
L 558.75031 110.881439 
L 558.797734 110.900205 
L 560.220437 110.6588 
L 560.315284 110.513521 
L 560.410131 110.289287 
L 560.457554 110.42235 
L 560.694671 111.271632 
L 560.742095 111.017817 
L 560.979212 110.252178 
L 561.168906 110.244118 
L 561.737987 110.016108 
L 562.354492 110.036354 
L 562.449339 109.814019 
L 562.544185 109.43347 
L 562.591609 109.670749 
L 562.828726 110.770539 
L 563.113267 109.867385 
L 563.492654 109.812948 
L 563.777195 109.781548 
L 564.251429 109.572782 
L 564.3937 109.621273 
L 564.53597 109.490772 
L 564.67824 108.375962 
L 564.725664 108.771347 
L 564.962781 110.190911 
L 565.152475 110.019154 
L 565.294745 109.630186 
L 565.342168 109.650654 
L 566.859718 109.555171 
L 566.954565 109.333228 
L 567.001989 109.499172 
L 567.239106 110.439209 
L 567.286529 110.186658 
L 567.476223 109.591509 
L 567.618493 109.561445 
L 567.855611 109.576803 
L 568.045304 109.530689 
L 568.377268 109.467382 
L 568.709233 109.42085 
L 568.94635 109.331318 
L 569.08862 108.664243 
L 569.136044 108.936083 
L 569.373161 110.128371 
L 569.657701 109.350979 
L 570.179359 109.220359 
L 570.938134 109.260294 
L 571.127828 108.868998 
L 571.222675 108.258826 
L 571.270098 108.548053 
L 571.507216 109.730553 
L 571.649486 109.84976 
L 571.934026 109.205313 
L 572.265991 109.158388 
L 572.455684 109.117524 
L 572.645378 109.117753 
L 573.451577 109.211323 
L 573.499 109.170757 
L 573.783541 110.523436 
L 573.830964 110.283381 
L 573.973234 109.736507 
L 574.020658 109.771279 
L 574.257775 109.802343 
L 574.400045 109.804546 
L 574.589739 109.763723 
L 575.490784 109.815505 
L 575.633055 108.596361 
L 575.680478 108.990187 
L 575.917595 110.423184 
L 576.344406 109.910077 
L 576.39183 109.958566 
L 576.5341 110.035054 
L 576.723794 109.999226 
L 577.292875 109.921832 
L 577.387722 109.942669 
L 577.529992 110.025943 
L 577.719686 109.987239 
L 577.814533 109.927434 
L 577.90938 109.788463 
L 578.193921 110.908743 
L 578.241344 110.631075 
L 578.431038 109.966498 
L 578.668155 109.841946 
L 578.810425 109.811018 
L 579.000119 109.694447 
L 579.332083 109.652316 
L 579.616624 109.597376 
L 579.853741 109.590048 
L 579.901164 109.543477 
L 580.043435 108.769419 
L 580.090858 109.038706 
L 580.327975 110.251368 
L 580.659939 109.497831 
L 580.849633 109.464572 
L 580.94448 109.487257 
L 581.039327 109.588839 
L 581.08675 109.530776 
L 581.276444 109.420164 
L 581.655832 109.35582 
L 581.987796 109.234646 
L 582.177489 109.283732 
L 582.31976 108.966231 
L 582.6043 109.97793 
L 582.651724 109.765597 
L 582.841418 109.262546 
L 582.983688 109.248656 
L 583.600193 109.407001 
L 583.789886 109.37982 
L 583.97958 109.434975 
L 584.12185 109.418168 
L 584.264121 109.401207 
L 584.311544 109.343623 
L 584.453815 108.232484 
L 584.501238 108.604839 
L 584.738355 110.072927 
L 585.070319 109.439234 
L 585.402283 109.448498 
L 585.734247 109.381219 
L 586.635293 109.542569 
L 586.73014 109.408351 
L 587.01468 110.5428 
L 587.062104 110.303899 
L 587.251798 109.72477 
L 587.488915 109.616256 
L 588.010573 109.762924 
L 588.342537 109.734798 
L 588.579654 109.822218 
L 588.721924 109.708369 
L 588.864194 108.490672 
L 588.911618 108.894379 
L 589.148735 110.336464 
L 589.480699 109.584064 
L 589.90751 109.671364 
L 590.286898 109.5851 
L 590.761132 109.566312 
L 590.950826 109.540841 
L 590.998249 109.551724 
L 591.14052 109.23751 
L 591.42506 110.494778 
L 591.472484 110.252654 
L 591.662177 109.678828 
L 591.899295 109.57294 
L 592.041565 109.588199 
L 592.231259 109.563218 
L 592.563223 109.537588 
L 593.037457 109.434122 
L 593.132304 109.46123 
L 593.274574 108.704903 
L 593.321998 108.887621 
L 593.606538 109.882632 
L 593.701385 109.991828 
L 593.985926 109.374701 
L 594.223043 109.371752 
L 594.934395 109.072326 
L 595.171512 109.122612 
L 595.408629 108.970571 
L 595.550899 107.985109 
L 595.598323 108.321193 
L 595.83544 109.601896 
L 596.214828 108.921748 
L 596.546792 108.873878 
L 597.732378 109.009829 
L 597.827225 108.801002 
L 597.874648 108.938954 
L 598.111765 109.828278 
L 598.159189 109.589197 
L 598.301459 109.060417 
L 598.348882 109.09946 
L 598.633423 109.14596 
L 598.87054 109.215985 
L 599.107657 109.21243 
L 599.344775 109.211645 
L 599.676739 109.174221 
L 599.819009 109.194116 
L 599.961279 108.329239 
L 600.008703 108.544304 
L 600.24582 109.484628 
L 600.38809 109.736386 
L 600.435514 109.582086 
L 600.577784 109.213721 
L 600.625208 109.245082 
L 600.862325 109.158534 
L 601.099442 109.155139 
L 601.431406 109.150468 
L 601.953064 109.226197 
L 602.095334 109.231227 
L 602.237604 108.144284 
L 602.285028 108.507468 
L 602.522145 109.768033 
L 602.99638 109.046781 
L 603.233497 109.049304 
L 603.518037 109.027078 
L 604.039695 108.855103 
L 604.371659 108.84026 
L 604.51393 108.424041 
L 604.561353 108.594141 
L 604.79847 109.578576 
L 604.845894 109.367738 
L 605.083011 108.729417 
L 605.414975 108.816452 
L 605.604669 108.802091 
L 605.984056 108.772306 
L 606.505714 108.646034 
L 606.695408 108.591694 
L 606.790255 108.386211 
L 607.074795 109.422167 
L 607.264489 108.658641 
L 607.311913 108.700831 
L 607.454183 108.568221 
L 607.54903 108.56352 
L 607.6913 108.673555 
L 607.880994 108.658204 
L 608.450075 108.655477 
L 608.639769 108.683162 
L 608.924309 108.786777 
L 609.06658 108.603799 
L 609.35112 109.409593 
L 609.398544 109.240684 
L 609.588238 108.837594 
L 609.730508 108.836237 
L 610.204742 109.012341 
L 610.489283 108.998234 
L 610.7264 109.010177 
L 610.963517 108.926954 
L 611.058364 108.959568 
L 611.200635 108.444137 
L 611.248058 108.592889 
L 611.532599 109.326598 
L 611.627446 109.519651 
L 611.817139 109.001329 
L 611.864563 109.038178 
L 613.334689 108.96218 
L 613.47696 107.873321 
L 613.524383 108.243834 
L 613.7615 109.628673 
L 613.998618 109.257763 
L 614.093464 109.137833 
L 614.140888 109.170329 
L 615.468744 109.206673 
L 615.611014 109.223496 
L 615.753285 108.135138 
L 615.800708 108.469239 
L 616.037825 109.770778 
L 616.464636 109.210484 
L 616.7966 109.261316 
L 616.891447 109.140535 
L 616.938871 109.192987 
L 617.128565 109.263947 
L 617.507952 109.246662 
L 617.650222 109.281797 
L 617.792493 109.232554 
L 617.88734 109.267922 
L 618.02961 108.525018 
L 618.077033 108.789712 
L 618.314151 109.811266 
L 618.693538 109.359491 
L 619.025502 109.368083 
L 619.357466 109.293199 
L 619.54716 109.36872 
L 620.068818 109.282432 
L 620.163665 109.316978 
L 620.305935 108.345757 
L 620.353358 108.68139 
L 620.590476 109.867929 
L 620.92244 109.273175 
L 621.823485 109.829254 
L 621.965755 109.83399 
L 622.202873 109.758142 
L 622.43999 109.605488 
L 622.58226 107.832491 
L 622.629684 108.222004 
L 622.819377 109.326379 
L 622.866801 109.471998 
L 622.914224 109.368318 
L 623.009071 109.253075 
L 623.293612 108.669186 
L 623.95754 108.545448 
L 624.09981 108.55639 
L 624.289504 108.592533 
L 624.526621 108.615224 
L 624.906009 108.257724 
L 625.000856 107.822804 
L 625.048279 108.02439 
L 625.285396 108.878509 
L 625.61736 108.137622 
L 625.759631 108.004203 
L 625.901901 107.81784 
L 625.949324 107.844206 
L 626.328712 107.836699 
L 626.613253 107.790814 
L 626.85037 107.968899 
L 627.087487 107.941213 
L 627.277181 108.019642 
L 627.419451 107.721039 
L 627.466874 107.863414 
L 627.703992 108.776159 
L 627.751415 108.612467 
L 627.941109 108.215798 
L 628.178226 108.145999 
L 628.794731 108.318638 
L 629.126695 108.289212 
L 629.411235 108.283217 
L 629.553506 107.652812 
L 629.600929 107.890043 
L 629.838046 108.943166 
L 630.122587 108.345554 
L 630.407128 108.343487 
L 630.644245 108.36449 
L 630.833939 108.401007 
L 631.26075 108.349767 
L 631.687561 108.376249 
L 631.829831 107.296486 
L 631.877254 107.627173 
L 632.114372 108.82394 
L 632.7783 108.290388 
L 632.873147 108.32864 
L 633.015417 108.437277 
L 633.299958 108.354637 
L 633.489651 108.506987 
L 633.726768 108.657211 
L 633.963886 108.727539 
L 634.106156 107.7589 
L 634.153579 108.056928 
L 634.390697 109.289257 
L 634.58039 109.204906 
L 634.770084 108.885264 
L 634.912354 108.899901 
L 635.481436 109.057971 
L 635.95567 108.982713 
L 636.382481 109.036417 
L 636.524751 108.864805 
L 636.809292 109.569705 
L 637.046409 109.005552 
L 637.18868 109.018249 
L 637.33095 109.004865 
L 637.615491 108.964121 
L 638.231995 109.107349 
L 638.563959 109.001613 
L 638.658806 109.042383 
L 638.801077 108.633652 
L 638.8485 108.810895 
L 639.085617 109.690725 
L 639.133041 109.448943 
L 639.275311 108.941263 
L 639.322734 108.978586 
L 639.607275 108.89828 
L 639.749545 108.90904 
L 640.034086 108.953763 
L 640.36605 108.929703 
L 640.603167 109.00783 
L 640.698014 109.01079 
L 640.840284 108.88167 
L 640.935131 108.920308 
L 641.077402 108.190783 
L 641.124825 108.449083 
L 641.361942 109.36837 
L 641.551636 109.285131 
L 641.74133 108.966142 
L 641.8836 108.984611 
L 642.215564 109.003617 
L 642.974339 108.888576 
L 643.069186 109.006769 
L 643.11661 108.959624 
L 643.25888 108.851022 
L 643.353727 108.89234 
L 643.495997 108.485419 
L 643.54342 108.622423 
L 643.780538 109.54422 
L 643.827961 109.339511 
L 644.065078 108.719002 
L 645.013547 108.654328 
L 645.155817 108.638629 
L 645.392935 108.611958 
L 645.487782 108.729786 
L 645.535205 108.687188 
L 645.630052 108.570189 
L 645.677475 108.612953 
L 645.772322 108.732817 
L 645.962016 108.344334 
L 646.009439 108.371344 
L 646.104286 108.488234 
L 646.246557 108.667962 
L 646.29398 108.644237 
L 646.673368 108.64823 
L 647.005332 108.710437 
L 647.716683 108.613635 
L 647.858954 108.618347 
L 648.048647 108.548389 
L 648.190918 109.627833 
L 648.238341 109.220314 
L 648.380611 108.295934 
L 648.428035 108.349837 
L 648.475458 108.340521 
L 648.617729 108.776299 
L 648.665152 108.666039 
L 648.902269 108.417171 
L 649.139386 108.441124 
L 649.281657 108.461721 
L 649.613621 108.482629 
L 649.898161 108.486928 
L 650.135279 108.509754 
L 650.324972 108.550082 
L 650.56209 108.577004 
L 650.84663 108.50035 
L 651.036324 108.618941 
L 651.605405 108.505645 
L 651.842522 108.531965 
L 651.984793 108.550828 
L 652.269333 108.595228 
L 652.411604 108.61406 
L 652.553874 108.60179 
L 652.790991 108.575903 
L 652.885838 108.695388 
L 653.028108 108.174555 
L 653.075532 108.227348 
L 653.265226 108.62651 
L 653.312649 108.764251 
L 653.360073 108.707589 
L 653.549766 108.631862 
L 654.071424 108.698693 
L 654.261118 108.701912 
L 654.640505 108.703112 
L 655.019893 108.660763 
L 655.209587 108.700217 
L 655.304434 108.898103 
L 655.446704 108.386954 
L 655.494127 108.429622 
L 655.826091 108.818938 
L 656.49002 108.58863 
L 656.727137 108.569626 
L 656.916831 108.571132 
L 657.106524 108.652742 
L 657.438488 108.638532 
L 657.723029 108.876506 
L 657.770452 108.745468 
L 657.865299 108.470342 
L 657.960146 108.509755 
L 658.054993 108.627668 
L 658.14984 108.824318 
L 658.197263 108.770011 
L 658.386957 108.69558 
L 658.813768 108.712876 
L 658.956038 108.700724 
L 659.145732 108.661813 
L 659.572543 108.6082 
L 660.141624 108.965446 
L 660.189048 108.797071 
L 660.283895 108.443288 
L 660.378742 108.483051 
L 660.473588 108.60164 
L 660.568435 108.799328 
L 660.615859 108.737947 
L 660.852976 108.568735 
L 661.04267 108.574122 
L 661.137517 108.458474 
L 661.18494 108.541472 
L 661.279787 108.739002 
L 661.32721 108.698177 
L 661.422057 108.580843 
L 661.469481 108.663435 
L 661.611751 108.856469 
L 661.801445 108.855621 
L 661.896292 108.973532 
L 662.085985 109.131592 
L 662.323103 109.155867 
L 662.512796 109.315967 
L 662.607643 109.159611 
L 662.70249 108.884958 
L 662.797337 108.925127 
L 662.939607 109.063821 
L 663.081878 109.084452 
L 663.271571 109.125069 
L 663.508689 109.152623 
L 664.314887 108.791445 
L 664.504581 109.113918 
L 664.552004 109.189235 
L 664.599428 109.077932 
L 664.694275 108.805141 
L 664.741698 108.873172 
L 664.836545 109.070626 
L 664.883968 109.00539 
L 664.978815 108.808951 
L 665.026239 108.877395 
L 665.121086 109.077189 
L 665.168509 108.965182 
L 665.310779 108.690536 
L 665.690167 108.86056 
L 666.259248 108.750848 
L 667.160293 108.96271 
L 667.397411 109.018935 
L 667.539681 110.101519 
L 667.587104 109.69041 
L 667.729375 108.730206 
L 667.776798 108.741572 
L 667.824222 108.695802 
L 667.966492 109.129319 
L 668.013915 109.06017 
L 668.298456 108.911844 
L 669.009808 109.058808 
L 669.199501 109.05982 
L 669.389195 109.019719 
L 669.673736 109.017707 
L 669.910853 109.289185 
L 669.958276 109.373521 
L 670.14797 108.865965 
L 670.195394 108.89495 
L 670.290241 109.012146 
L 670.479934 109.168248 
L 670.811898 109.156087 
L 671.618097 109.298218 
L 671.950061 109.284961 
L 672.376872 109.341023 
L 672.708836 109.137603 
L 672.851106 109.265758 
L 672.945953 109.463995 
L 672.993377 109.414808 
L 673.18307 109.335258 
L 673.372764 109.294251 
L 673.515034 109.123188 
L 673.562458 109.17499 
L 673.752152 109.254159 
L 674.178963 109.284563 
L 674.510927 109.310282 
L 674.748044 109.279048 
L 674.842891 109.436808 
L 674.937738 109.713492 
L 675.127431 109.08793 
L 675.174855 109.118816 
L 675.269702 109.235435 
L 675.364549 109.430912 
L 675.411972 109.372249 
L 675.601666 109.297477 
L 675.79136 109.26004 
L 676.407864 109.04367 
L 676.739828 109.104979 
L 676.929522 109.142972 
L 677.166639 109.177084 
L 677.30891 109.177378 
L 677.403756 109.413241 
L 677.498603 109.846888 
L 677.546027 109.576962 
L 677.688297 108.984513 
L 677.735721 109.023613 
L 677.783144 109.026765 
L 677.925414 109.453353 
L 677.972838 109.426242 
L 678.541919 109.353792 
L 678.731613 109.353771 
L 679.395541 109.239727 
L 679.585235 109.243572 
L 679.727505 109.259371 
L 679.917199 109.3365 
L 680.059469 108.818904 
L 680.106893 108.864267 
L 680.533704 109.329289 
L 680.865668 109.268236 
L 681.150208 109.309204 
L 681.908983 109.116439 
L 682.098677 109.116372 
L 682.288371 109.036935 
L 682.478065 109.233723 
L 682.525488 109.101265 
L 682.620335 108.825596 
L 682.715182 108.864556 
L 682.810029 108.982053 
L 682.999722 109.138339 
L 683.663651 109.020835 
L 683.853344 109.021576 
L 684.375002 108.967278 
L 684.659543 109.004295 
L 684.849237 108.923704 
L 684.944083 109.041322 
L 685.03893 109.238229 
L 685.228624 108.728288 
L 685.276047 108.755481 
L 685.370894 108.872145 
L 685.560588 109.026701 
L 685.892552 109.013609 
L 686.41421 109.027489 
L 686.603904 109.068612 
L 686.888444 109.070504 
L 687.172985 109.071666 
L 687.362679 109.072551 
L 687.599796 109.243264 
L 687.78949 108.73195 
L 687.836913 108.757601 
L 687.979184 108.890803 
L 688.121454 108.913106 
L 688.263724 108.931749 
L 688.643112 108.971774 
L 689.16477 109.067741 
L 689.59158 109.010636 
L 690.018391 109.070865 
L 690.208085 108.875404 
L 690.302932 108.600151 
L 690.350356 108.649443 
L 690.777166 109.110529 
L 690.96686 109.109486 
L 691.346248 109.108511 
L 691.535942 109.108605 
L 691.915329 109.107998 
L 692.105023 109.105868 
L 692.436987 109.125885 
L 692.674104 109.091324 
L 692.721528 109.13136 
L 692.863798 109.758431 
L 692.911221 109.485697 
L 693.100915 108.852142 
L 693.148338 108.816442 
L 693.290609 109.241246 
L 693.338032 109.173851 
L 693.575149 108.999916 
L 693.71742 109.176916 
L 693.764843 109.115134 
L 693.954537 109.032829 
L 694.144231 109.226146 
L 694.191654 109.141938 
L 694.286501 108.945212 
L 694.333924 109.027241 
L 694.476195 109.219226 
L 694.855582 109.051883 
L 695.0927 109.077777 
L 695.282393 109.00063 
L 695.424664 109.39517 
L 695.472087 109.194768 
L 695.566934 108.758558 
L 695.661781 108.79406 
L 695.709204 108.811495 
L 695.851475 109.219029 
L 695.898898 109.171471 
L 695.993745 109.055015 
L 696.041168 109.095369 
L 696.136015 109.212502 
L 696.183439 109.133424 
L 696.278286 108.934419 
L 696.325709 108.978119 
L 696.515403 109.062542 
L 696.75252 109.071535 
L 696.847367 109.265242 
L 696.989637 108.757894 
L 697.037061 108.868534 
L 697.226754 109.184826 
L 697.369025 109.182047 
L 697.558718 109.096186 
L 697.795836 109.235942 
L 697.985529 109.158382 
L 698.1278 109.673825 
L 698.175223 109.510533 
L 698.41234 108.967475 
L 698.554611 109.26498 
L 698.602034 109.204882 
L 698.791728 109.125249 
L 698.933998 109.261026 
L 698.981422 109.320136 
L 699.028845 109.260408 
L 699.265962 109.082172 
L 699.740197 109.16232 
L 699.835043 108.965215 
L 699.882467 109.009579 
L 700.024737 109.120675 
L 700.214431 109.116439 
L 700.593819 109.10399 
L 700.688665 109.061603 
L 700.830936 108.662307 
L 700.878359 108.742015 
L 701.020629 108.936947 
L 701.115476 108.89623 
L 701.30517 109.168173 
L 701.352594 109.133184 
L 702.016522 109.12905 
L 702.158792 109.11622 
L 702.348486 109.034754 
L 702.870144 109.085653 
L 703.059837 109.085882 
L 703.391801 109.209717 
L 703.581495 108.696181 
L 703.628919 108.726416 
L 703.771189 108.853424 
L 704.103153 109.148017 
L 704.387694 109.142682 
L 704.767081 109.216498 
L 705.288739 109.154063 
L 705.810397 109.244268 
L 706.047514 109.218233 
L 706.237208 109.293337 
L 706.426902 108.779559 
L 706.474325 108.803686 
L 706.569172 108.919402 
L 706.806289 109.171448 
L 707.09083 109.166807 
L 707.565064 109.035319 
L 707.659911 109.151185 
L 707.707334 109.104617 
L 707.802181 108.985049 
L 707.849605 109.03007 
L 707.991875 109.137981 
L 708.181569 109.131684 
L 708.655803 109.195011 
L 708.89292 109.261739 
L 708.940344 109.309412 
L 709.224885 108.837342 
L 709.414578 109.112834 
L 709.462002 109.085515 
L 709.556849 109.122686 
L 709.746542 109.198301 
L 710.315624 109.150321 
L 710.552741 109.172796 
L 710.742435 109.091444 
L 711.358939 109.094921 
L 711.596057 109.067836 
L 711.78575 109.141857 
L 711.975444 108.627031 
L 712.022868 108.652698 
L 712.117714 108.76818 
L 712.354832 109.01631 
L 712.734219 109.086777 
L 713.066183 109.065796 
L 713.540418 109.093849 
L 713.730111 109.087762 
L 713.967229 109.106368 
L 714.156922 109.024774 
L 714.53631 109.015318 
L 714.726004 109.009312 
L 715.200238 109.073626 
L 715.674472 109.024186 
L 715.864166 109.021384 
L 716.05386 109.058369 
L 716.480671 109.104355 
L 716.954905 109.054008 
L 717.144599 109.051168 
L 717.618833 108.96739 
L 717.761104 109.132488 
L 717.808527 109.08215 
L 717.998221 108.998341 
L 718.567302 109.018683 
L 719.041537 108.927888 
L 719.420924 108.996511 
L 719.752888 108.973732 
L 720.227123 109.001386 
L 720.416816 108.995928 
L 721.412709 109.342391 
L 721.554979 109.355963 
L 722.171484 109.202559 
L 722.882835 109.356674 
L 723.35707 109.304556 
L 723.546763 109.300493 
L 724.495232 109.038813 
L 724.732349 109.012785 
L 725.254007 108.859328 
L 725.585971 108.868964 
L 725.870512 108.861198 
L 726.581864 109.014898 
L 726.866404 109.007299 
L 727.435485 109.108175 
L 727.814873 109.01674 
L 728.099414 109.047317 
L 728.289107 109.081336 
L 729.000459 109.235829 
L 729.332423 109.162738 
L 729.522117 109.23508 
L 730.043775 109.16295 
L 730.565432 109.239957 
L 731.039667 109.184724 
L 731.229361 109.179108 
L 731.419054 109.212717 
L 731.656172 109.226472 
L 731.940712 109.178456 
L 732.272676 109.181409 
L 732.746911 109.128529 
L 732.936604 109.280834 
L 732.984028 109.334705 
L 733.031451 109.277972 
L 733.268569 109.087662 
L 733.647956 109.152922 
L 733.97992 109.125554 
L 735.165506 109.417121 
L 735.3552 109.409132 
L 735.544894 109.361506 
L 735.971705 109.287749 
L 736.540786 109.380409 
L 737.01502 109.323994 
L 737.204714 109.318358 
L 737.678948 109.223864 
L 737.963489 109.21236 
L 738.200606 109.180731 
L 738.485147 109.208993 
L 738.674841 109.241055 
L 739.054228 109.305981 
L 739.386192 109.271662 
L 739.670733 109.260126 
L 739.90785 109.273153 
L 740.192391 109.222142 
L 740.666625 109.279105 
L 741.093436 109.206354 
L 741.709941 109.277974 
L 741.899635 109.271365 
L 742.231599 109.271766 
L 742.516139 109.260976 
L 742.895527 109.326459 
L 743.180067 109.276436 
L 743.512032 109.27856 
L 744.081113 109.139952 
L 744.887311 109.238418 
L 745.361546 109.140208 
L 745.740933 109.203649 
L 746.025474 109.153183 
L 746.357438 109.152222 
L 746.831672 109.092511 
L 747.021366 109.085375 
L 747.163636 109.100162 
L 747.163636 109.100162 
" clip-path="url(#p994a65431d)" style="fill: none; stroke: #1f77b4; stroke-width: 1.5; stroke-linecap: square"/>
   </g>
   <g id="LineCollection_1">
    <path d="M 313.808244 184.68 
L 313.808244 33.48 
" clip-path="url(#p994a65431d)" style="fill: none; stroke-dasharray: 5.55,2.4; stroke-dashoffset: 0; stroke: #ff0000; stroke-width: 1.5"/>
   </g>
   <g id="patch_3">
    <path d="M 108 192.24 
L 108 25.92 
" style="fill: none; stroke: #000000; stroke-width: 0.8; stroke-linejoin: miter; stroke-linecap: square"/>
   </g>
   <g id="patch_4">
    <path d="M 777.6 192.24 
L 777.6 25.92 
" style="fill: none; stroke: #000000; stroke-width: 0.8; stroke-linejoin: miter; stroke-linecap: square"/>
   </g>
   <g id="patch_5">
    <path d="M 108 192.24 
L 777.6 192.24 
" style="fill: none; stroke: #000000; stroke-width: 0.8; stroke-linejoin: miter; stroke-linecap: square"/>
   </g>
   <g id="patch_6">
    <path d="M 108 25.92 
L 777.6 25.92 
" style="fill: none; stroke: #000000; stroke-width: 0.8; stroke-linejoin: miter; stroke-linecap: square"/>
   </g>
  </g>
 </g>
 <defs>
  <clipPath id="p994a65431d">
   <rect x="108" y="25.92" width="669.6" height="166.32"/>
  </clipPath>
 </defs>
</svg>
